<?xml version="1.0" standalone="no"?>
<!DOCTYPE svg PUBLIC "-//W3C//DTD SVG 20010904//EN"
 "http://www.w3.org/TR/2001/REC-SVG-20010904/DTD/svg10.dtd">
<svg version="1.0" xmlns="http://www.w3.org/2000/svg"
 width="800.000000pt" height="600.000000pt" viewBox="0 0 800.000000 600.000000"
 preserveAspectRatio="xMidYMid meet">

<g transform="translate(0.000000,600.000000) scale(0.100000,-0.100000)"
fill="#000000" stroke="none">
<path d="M3670 5990 c8 -5 27 -10 42 -10 15 0 59 -12 99 -26 51 -19 74 -23 82
-15 15 15 73 14 89 -2 7 -8 18 -12 25 -10 6 2 14 0 17 -6 11 -16 -29 -22 -79
-11 -42 9 -49 8 -75 -12 -50 -40 -45 -53 24 -66 33 -6 111 -14 171 -17 61 -3
150 -8 198 -11 60 -3 87 -2 82 5 -4 7 0 8 10 4 13 -4 4 -19 -46 -69 -35 -35
-60 -67 -56 -70 4 -4 33 15 64 42 87 74 137 110 131 93 -5 -14 9 -16 101 -15
85 1 116 -3 149 -18 35 -16 47 -17 69 -7 20 9 28 9 33 0 6 -9 20 -9 58 1 28 6
59 9 70 6 10 -4 50 -6 88 -6 38 0 138 -3 222 -7 l152 -6 0 -41 0 -41 78 -17
c42 -10 123 -19 179 -22 75 -3 114 -10 145 -24 54 -25 100 -39 161 -47 44 -6
47 -8 47 -37 0 -21 -6 -31 -20 -35 -24 -6 -27 -23 -4 -23 8 0 12 -4 9 -10 -3
-5 -2 -10 3 -10 5 0 13 21 17 48 12 82 37 161 50 156 12 -5 7 -74 -15 -183
-13 -69 -12 -74 6 -31 14 34 14 34 10 5 -6 -42 -30 -123 -52 -173 0 -1 -26 11
-57 28 -64 34 -75 37 -57 15 7 -8 18 -15 24 -15 6 0 17 -4 25 -9 11 -7 9 -22
-14 -85 -15 -42 -30 -76 -32 -76 -3 0 -3 7 1 15 7 19 -14 20 -39 2 -20 -15
-12 -42 11 -33 8 3 14 2 14 -3 0 -13 -35 -41 -51 -41 -9 0 -25 -13 -37 -30
-23 -30 -55 -39 -67 -19 -4 6 -21 9 -38 7 -23 -2 -31 2 -29 11 2 10 -5 12 -27
8 -22 -5 -33 -2 -39 9 -7 13 -13 14 -30 5 -17 -9 -23 -8 -30 4 -7 14 -11 13
-28 -6 -15 -18 -16 -23 -5 -27 22 -8 64 -56 52 -60 -20 -7 -86 20 -102 41 -22
27 -55 17 -39 -12 5 -11 10 -27 10 -36 0 -21 -81 -71 -128 -79 -66 -12 -96
-29 -166 -93 -38 -35 -81 -66 -95 -69 -14 -3 -57 -19 -95 -36 -38 -17 -79 -33
-90 -34 -12 -2 -40 -6 -63 -10 -24 -4 -54 -17 -68 -30 -15 -13 -33 -24 -41
-24 -7 0 -14 -4 -14 -8 0 -30 351 -158 405 -148 22 4 26 3 15 -4 -11 -7 -6
-10 22 -10 20 0 39 -4 42 -9 3 -4 19 -11 35 -14 26 -6 31 -12 42 -62 7 -30 15
-55 18 -55 3 0 43 -2 89 -4 46 -2 86 -7 89 -10 3 -3 1 -29 -5 -58 -6 -33 -7
-72 -2 -103 13 -78 18 -215 7 -215 -5 0 -26 13 -46 28 -20 16 -52 37 -71 48
-19 10 -37 22 -40 25 -26 30 -355 178 -432 194 -18 4 -37 10 -43 14 -5 4 -46
18 -90 30 -44 13 -89 27 -100 31 -11 4 -54 18 -95 30 -41 12 -122 37 -180 56
-168 53 -296 82 -395 89 -79 5 -281 35 -380 56 -203 45 -458 72 -765 84 -85 3
-175 8 -200 11 -39 5 -43 4 -27 -8 15 -11 4 -13 -83 -13 -121 0 -132 18 -14
24 l79 3 -55 13 c-54 13 -149 5 -175 -16 -5 -4 -28 -10 -50 -14 -22 -4 -65
-14 -95 -22 -30 -9 -86 -16 -123 -16 -37 0 -70 -4 -73 -8 -3 -5 -17 -1 -31 8
-20 13 -45 16 -118 14 -69 -2 -103 2 -131 14 -47 21 -132 45 -157 45 -24 0
-12 -19 22 -34 14 -6 51 -27 81 -47 30 -20 75 -47 100 -60 24 -13 73 -44 109
-68 35 -24 76 -45 90 -47 14 -1 52 -8 85 -14 71 -13 82 -7 30 16 -28 12 -34
18 -22 21 19 5 104 -41 128 -69 8 -9 26 -19 40 -20 14 -2 36 -11 50 -21 13 -9
36 -17 50 -17 14 0 31 -5 37 -11 13 -13 43 -5 43 11 0 5 -8 10 -17 10 -24 0
-49 17 -40 27 5 4 11 3 15 -3 4 -5 48 -22 97 -38 50 -15 101 -32 114 -37 13
-5 31 -7 41 -4 10 3 21 1 24 -4 4 -6 18 -6 39 0 17 5 46 8 62 7 17 -1 36 2 43
6 19 12 14 -9 -7 -28 -15 -14 -29 -16 -60 -11 -22 4 -48 2 -59 -4 -15 -8 -31
-7 -64 5 -23 9 -58 16 -77 15 -18 -1 -44 5 -57 13 -14 10 -25 12 -29 6 -7 -11
47 -47 83 -56 12 -4 35 -4 50 -1 14 3 40 -2 55 -10 17 -8 40 -12 53 -9 17 5
42 -2 77 -22 51 -27 92 -32 84 -9 -2 7 -12 14 -23 15 -34 7 -36 19 -5 30 24 9
31 8 31 -2 0 -7 11 -18 25 -24 27 -13 32 -27 13 -35 -7 -3 -4 -6 7 -6 11 -1
37 -10 58 -21 20 -11 44 -20 53 -20 9 0 31 -9 48 -19 32 -19 135 -45 144 -36
3 3 -2 5 -11 5 -10 0 -17 4 -17 10 0 5 -7 7 -15 4 -16 -6 -45 12 -45 27 0 5 7
9 17 9 27 0 6 13 -23 14 -34 1 -43 22 -14 31 14 4 18 11 13 16 -6 6 -22 3 -42
-7 -23 -12 -30 -19 -22 -27 14 -14 14 -27 1 -27 -5 0 -10 7 -10 15 0 8 -8 15
-17 15 -14 0 -15 2 -5 9 11 6 10 10 -4 15 -11 4 -20 2 -22 -3 -5 -15 -24 -13
-47 5 -19 15 -18 16 13 9 20 -4 32 -3 32 4 0 6 12 8 30 5 19 -4 30 -2 30 4 0
6 6 9 13 6 8 -3 49 7 92 21 93 30 95 30 95 5 0 -24 13 -26 30 -5 10 12 16 13
26 4 19 -15 18 -29 -3 -45 -16 -12 -16 -13 -1 -14 9 0 18 5 20 12 3 7 12 9 22
5 9 -4 14 -11 11 -17 -3 -5 -2 -10 3 -10 10 0 25 37 23 57 -1 10 5 10 24 3 20
-8 27 -6 31 5 8 20 23 19 31 -2 4 -10 15 -25 26 -33 16 -13 23 -31 26 -63 1
-5 5 -6 10 -3 11 7 3 43 -17 74 -14 21 -13 22 11 22 15 0 30 -8 36 -19 6 -10
30 -23 55 -30 24 -6 51 -18 60 -26 23 -23 70 -29 103 -12 15 8 50 24 76 36 43
19 67 44 55 56 -3 3 -24 -4 -47 -16 -57 -27 -107 -35 -126 -19 -21 18 -10 29
25 25 22 -3 28 0 23 10 -4 11 -16 13 -49 10 -44 -6 -84 7 -84 25 0 6 14 10 30
10 17 0 30 5 30 10 0 17 20 11 54 -15 29 -22 35 -23 46 -10 16 19 30 19 30 0
0 -8 -5 -15 -12 -15 -6 0 -9 -2 -6 -5 3 -3 27 8 53 26 38 26 49 29 56 18 12
-19 11 -34 -6 -147 -32 -217 -118 -344 -284 -419 -174 -80 -302 -112 -398
-100 -26 4 -70 9 -98 12 -77 9 -96 15 -90 25 3 6 25 11 48 11 23 1 56 5 72 9
23 6 12 8 -43 9 -40 0 -80 -4 -90 -10 -25 -16 -167 22 -166 43 2 23 -65 30
-78 8 -11 -17 -40 -15 -173 11 -127 25 -137 29 -110 39 16 6 12 9 -22 14 -36
7 -43 12 -57 46 -15 38 -26 44 -203 117 -18 7 -16 -22 2 -37 8 -7 13 -16 10
-20 -3 -4 11 -11 31 -14 19 -4 38 -14 41 -22 3 -8 22 -22 42 -30 28 -12 33
-17 21 -24 -13 -9 -13 -10 0 -10 8 0 30 -9 48 -20 l33 -20 -31 -26 -31 -26
-57 53 c-31 29 -59 56 -62 59 -16 16 -149 119 -167 129 -25 13 -31 31 -10 31
6 0 23 -6 37 -13 14 -8 34 -11 45 -7 23 8 13 14 -44 30 -34 9 -46 9 -51 -1 -9
-13 -40 -6 -40 9 0 10 38 27 85 37 16 4 49 15 72 26 40 18 42 21 32 42 -42 80
-213 256 -327 336 -89 63 -248 148 -364 195 -48 19 -102 42 -121 51 -19 9 -41
15 -49 14 -7 -2 -41 1 -75 5 -44 6 -63 12 -63 22 0 8 7 14 15 14 8 0 15 4 15
9 0 15 -91 -8 -134 -33 -56 -33 -71 -64 -71 -150 0 -101 44 -185 185 -355 61
-72 110 -135 110 -141 0 -5 5 -10 10 -10 6 0 10 5 10 10 0 6 7 10 15 10 8 0
15 -7 15 -15 0 -10 10 -15 34 -15 21 0 36 6 40 15 8 21 26 19 26 -4 0 -22 34
-27 310 -37 l165 -6 34 -32 c108 -101 121 -116 108 -137 -6 -10 -16 -19 -22
-20 -5 -1 1 -4 15 -9 23 -7 24 -8 5 -14 -11 -4 -32 -14 -47 -22 -20 -11 -27
-11 -30 -2 -3 7 -31 18 -64 24 -32 7 -90 19 -129 27 -38 8 -73 13 -78 10 -4
-2 -30 3 -57 12 -27 9 -53 14 -58 11 -13 -8 -144 21 -192 43 -24 11 -49 17
-55 13 -5 -3 -4 2 4 11 7 9 11 23 8 30 -4 10 8 13 51 11 54 -3 55 -3 17 6 -22
5 -87 9 -144 9 -123 1 -131 9 -13 12 48 2 87 8 92 14 12 14 -132 25 -317 25
-93 0 -119 -3 -150 -20 -32 -17 -34 -20 -17 -26 10 -4 49 -25 86 -47 57 -33
82 -41 150 -48 105 -12 261 -44 358 -74 154 -48 407 -117 480 -131 84 -16 194
-52 356 -118 60 -24 124 -47 142 -51 18 -3 32 -7 33 -8 0 -1 2 -33 5 -72 10
-140 67 -255 152 -303 13 -7 26 -11 29 -8 3 3 -6 35 -21 71 -30 74 -34 101 -6
39 10 -23 30 -60 44 -83 24 -38 30 -41 70 -41 l43 0 11 53 c6 28 14 70 17 92
4 22 12 43 17 46 20 13 38 81 26 102 -9 18 -7 19 34 14 23 -2 88 -14 143 -26
119 -25 167 -34 305 -61 118 -23 313 -78 410 -117 110 -43 301 -142 385 -199
161 -108 284 -245 285 -315 2 -130 -10 -162 -89 -241 -84 -83 -140 -100 -331
-98 -104 1 -243 15 -189 19 9 0 19 10 22 22 4 15 11 19 25 15 13 -5 22 1 32
20 13 22 16 24 26 10 15 -21 37 -12 54 20 7 13 17 24 22 24 4 0 8 6 8 14 0 8
7 17 16 20 10 4 14 14 11 26 -3 10 1 24 9 31 8 6 14 24 14 40 0 37 18 47 26
15 4 -17 1 -31 -10 -41 -19 -20 -21 -42 -3 -48 8 -2 4 -12 -12 -29 -14 -14
-26 -34 -27 -44 -2 -10 -5 -28 -9 -41 -7 -27 9 -30 51 -8 16 8 37 15 47 15 11
0 21 9 24 20 3 12 14 20 27 20 12 0 28 6 34 12 10 10 15 10 21 -1 6 -9 10 -2
15 22 4 19 14 50 23 67 13 27 14 39 4 65 -13 38 -14 45 -2 45 5 0 11 -9 14
-20 6 -24 27 -27 27 -4 0 8 5 12 10 9 6 -3 10 -1 10 6 0 7 12 25 26 40 31 33
24 51 -16 42 -17 -3 -30 -1 -30 4 0 5 -16 7 -35 5 -40 -5 -48 13 -10 22 29 7
33 24 8 32 -10 3 -26 10 -35 15 -21 11 -33 -7 -43 -68 -5 -33 -3 -44 7 -48 15
-6 13 -65 -2 -65 -13 0 -19 26 -10 41 6 8 4 16 -3 21 -19 12 -27 9 -21 -7 3
-8 -2 -22 -11 -31 -9 -9 -14 -23 -11 -30 3 -7 1 -16 -4 -19 -6 -4 -10 1 -10 9
0 8 -8 20 -18 25 -14 7 -17 18 -14 48 3 21 8 40 13 43 11 8 29 137 22 157 -9
24 -23 -5 -23 -50 0 -29 -5 -39 -21 -46 -15 -5 -23 -18 -26 -41 -2 -18 -8 -39
-14 -47 -9 -10 -8 -13 0 -13 7 0 9 -5 6 -11 -4 -5 -12 -8 -18 -6 -7 2 -19 -17
-29 -42 -16 -46 -16 -46 -17 -12 -1 25 -5 32 -16 28 -8 -4 -17 -2 -20 4 -10
15 -27 -1 -22 -20 3 -13 -3 -17 -29 -18 -32 -1 -32 0 -20 21 8 11 17 41 21 66
l6 45 -26 -28 c-14 -15 -25 -39 -25 -53 0 -14 -6 -24 -14 -24 -9 0 -12 7 -9
19 4 15 -1 20 -22 23 -21 2 -30 11 -39 38 -6 19 -15 34 -21 33 -17 -4 -18 -68
-1 -82 13 -11 12 -17 -6 -47 -16 -27 -23 -32 -34 -23 -10 8 -11 15 -1 29 19
32 -1 34 -36 4 -50 -42 -57 -58 -64 -132 -3 -36 -12 -77 -20 -92 -7 -14 -13
-33 -13 -42 0 -21 -13 -23 -42 -7 -11 6 -52 13 -91 16 -97 6 -104 9 -83 31 18
21 21 42 6 42 -5 0 -10 -4 -10 -10 0 -15 -51 -61 -61 -54 -9 5 18 61 43 89 12
13 10 35 -3 35 -16 0 -48 -42 -49 -62 0 -10 -5 -18 -11 -18 -5 0 -8 -3 -5 -8
2 -4 -1 -15 -8 -24 -15 -20 -72 -29 -69 -11 2 7 -2 13 -7 13 -17 0 -11 -26 11
-46 12 -10 23 -18 25 -16 10 6 24 1 24 -8 0 -20 -49 -10 -68 15 -17 21 -21 23
-32 10 -10 -12 -9 -20 4 -40 20 -30 20 -35 1 -35 -8 0 -19 9 -25 20 -13 25
-30 17 -30 -13 0 -17 13 -28 58 -49 l57 -26 -38 -1 c-26 -1 -49 7 -71 24 -40
31 -48 31 -44 4 2 -17 21 -28 93 -54 50 -18 101 -37 115 -43 40 -17 -3 -15
-67 4 -30 9 -68 13 -84 10 -18 -3 -33 0 -43 9 -19 20 -40 19 -32 -1 3 -9 6
-18 6 -20 0 -2 10 -4 23 -4 30 0 197 -36 228 -50 23 -10 22 -10 -6 -6 -79 12
-225 17 -225 8 0 -26 43 -37 120 -30 14 1 70 1 125 -1 79 -2 95 -4 75 -12 -24
-10 -24 -11 -6 -25 11 -7 18 -15 15 -18 -11 -9 -168 -15 -174 -6 -3 5 2 11 12
11 10 1 29 2 43 3 14 1 35 3 48 4 41 3 12 22 -33 22 -31 0 -55 -8 -81 -25 -20
-14 -30 -25 -21 -25 8 0 17 -7 21 -15 3 -8 14 -15 25 -15 11 0 23 -4 26 -10 3
-5 15 -10 26 -10 39 0 13 -25 -47 -44 -47 -16 -87 -20 -194 -20 -148 0 -258
21 -555 104 -296 82 -590 130 -794 130 -113 -1 -143 -4 -176 -20 -22 -11 -46
-19 -52 -20 -15 0 -17 -29 -3 -50 7 -11 28 -13 97 -11 48 1 117 -2 153 -8 36
-5 121 -17 190 -27 69 -9 129 -21 134 -26 6 -4 -23 -8 -65 -9 l-74 -1 71 -18
c112 -28 109 -29 -61 -23 -189 7 -204 7 -213 -2 -17 -17 67 -36 221 -50 37 -4
65 -11 62 -16 -4 -5 11 -9 31 -9 45 0 167 -20 161 -27 -3 -2 -100 -4 -216 -4
-116 0 -211 -4 -211 -9 0 -10 25 -20 51 -20 10 0 19 -7 19 -15 0 -20 17 -19
37 1 11 10 25 14 42 9 14 -3 55 -10 91 -15 36 -5 94 -14 130 -20 36 -5 105
-12 155 -15 49 -3 91 -7 92 -9 2 -2 -47 -6 -109 -10 -62 -4 -142 -9 -177 -13
-60 -6 -62 -7 -39 -19 28 -15 155 -37 167 -30 5 3 91 8 192 10 101 3 183 9
181 13 -4 10 34 21 73 21 30 1 29 0 -10 -17 l-40 -18 49 5 c71 7 51 -13 -26
-27 -80 -13 -254 -31 -338 -34 -53 -2 -65 -5 -68 -19 -3 -14 3 -18 23 -18 14
0 28 -6 31 -14 4 -11 12 -13 31 -5 13 5 86 14 161 19 75 5 163 14 194 20 38 7
64 8 76 1 11 -6 24 -6 33 0 18 11 39 12 39 0 0 -14 -55 -30 -71 -21 -8 5 -23
3 -39 -5 -14 -8 -52 -24 -85 -34 l-60 -20 65 4 c85 7 71 1 -80 -30 -69 -14
-135 -27 -146 -30 -25 -6 -40 -55 -17 -55 8 0 11 5 8 10 -4 6 9 10 32 10 21 0
76 7 123 15 125 22 129 17 10 -14 -161 -43 -195 -56 -195 -77 0 -26 34 -23
189 15 144 36 142 36 125 15 -11 -13 -9 -14 14 -9 21 6 26 4 22 -7 -9 -23 91
-6 152 25 71 37 76 33 23 -14 l-45 -40 28 -22 c17 -15 27 -32 27 -50 0 -35 25
-36 61 -1 l27 26 -9 -43 c-6 -23 -12 -46 -14 -50 -3 -4 22 -10 56 -14 51 -6
59 -10 54 -24 -4 -9 -10 -22 -13 -30 -4 -10 -1 -12 7 -6 7 4 27 37 45 74 17
37 40 78 50 91 l18 25 -6 -35 c-3 -19 -18 -63 -33 -98 -14 -34 -23 -65 -19
-69 10 -10 37 32 72 112 40 90 101 205 121 228 9 9 24 17 35 17 10 0 18 3 18
8 0 9 -71 48 -81 45 -4 -1 -13 4 -20 13 -10 13 -15 12 -35 -7 -18 -17 -21 -26
-13 -40 5 -11 16 -19 24 -19 8 0 15 -4 15 -10 0 -15 -90 1 -127 22 -18 11 -40
37 -50 58 -10 22 -23 40 -28 40 -6 0 -19 14 -29 30 -10 18 -24 29 -34 28 -18
-3 -42 36 -42 70 0 12 -6 22 -14 22 -15 0 -32 37 -22 47 3 3 17 2 32 -1 21 -6
25 -11 21 -32 -2 -13 1 -28 7 -32 7 -4 25 -24 40 -44 15 -20 33 -35 40 -32 7
3 21 -4 31 -16 11 -12 31 -20 51 -20 46 0 64 -9 57 -28 -5 -14 -3 -15 8 -4 7
6 23 12 36 12 13 0 23 4 23 9 0 5 14 17 32 25 29 15 33 15 50 -1 19 -17 19
-16 16 22 -3 35 0 40 20 43 26 4 29 17 6 26 -8 3 -12 11 -9 17 4 6 13 8 20 5
7 -2 27 5 45 15 47 29 72 22 77 -20 4 -43 9 -48 33 -33 11 7 27 12 35 12 9 0
13 5 10 11 -4 5 4 21 17 34 12 14 31 34 40 45 10 11 24 17 32 14 7 -3 25 6 39
20 15 14 31 26 37 26 5 0 10 7 10 15 0 17 16 20 25 5 4 -6 11 -8 16 -5 19 12
49 -6 49 -30 0 -22 3 -23 42 -20 23 2 48 -1 55 -6 15 -14 34 -3 27 16 -9 21
24 64 45 58 11 -3 24 5 34 21 15 22 15 28 2 53 -13 26 -13 28 5 35 11 4 20 12
20 18 0 5 14 10 30 10 26 0 29 -2 19 -18 -15 -25 4 -72 30 -72 11 0 25 9 31
20 7 14 17 19 29 15 12 -4 24 2 34 18 29 45 47 58 66 47 22 -11 65 15 57 36
-8 21 38 18 58 -5 11 -12 15 -27 11 -44 -8 -30 10 -44 24 -20 6 10 11 12 11 6
0 -7 6 -13 14 -13 21 0 30 -19 17 -34 -17 -20 -3 -43 31 -55 48 -17 58 -14 59
17 0 26 1 26 9 5 5 -13 14 -23 20 -23 16 0 170 119 170 132 0 5 10 8 23 5 17
-4 29 4 56 36 33 41 33 43 27 114 -3 39 -15 94 -26 122 -24 62 -26 78 -6 62 8
-6 24 -35 36 -64 13 -29 25 -46 27 -39 3 6 18 12 34 12 31 0 36 9 17 28 -16
16 20 43 47 35 17 -5 18 -4 6 11 -12 14 -11 16 8 16 14 0 20 4 15 11 -9 15 14
29 48 29 20 0 26 4 22 15 -4 8 -1 21 5 29 8 10 5 16 -14 26 -25 14 -33 44 -15
55 18 11 11 35 -10 35 -11 0 -20 4 -20 9 0 5 -14 14 -32 22 -30 12 -30 13 -10
22 24 11 30 36 10 38 -7 1 -28 0 -45 -1 -58 -3 -62 21 -8 45 18 8 17 9 -10 13
-16 2 -32 7 -35 10 -3 4 -22 16 -42 26 -44 22 -46 29 -16 50 21 15 21 16 2 37
-32 35 -53 43 -73 25 -19 -17 -71 -22 -71 -6 0 5 8 17 19 27 10 10 22 29 26
42 8 26 12 25 -80 6 l-30 -6 28 25 c27 25 27 25 6 36 -15 8 -29 8 -51 1 -17
-6 -42 -11 -55 -11 -29 0 -43 29 -20 42 25 13 21 28 -8 28 -14 0 -25 5 -25 10
0 6 -3 9 -7 9 -34 -5 -62 3 -68 21 -3 11 -13 20 -21 20 -8 0 -14 5 -14 11 0 6
-9 9 -20 6 -13 -3 -20 0 -20 9 0 23 -30 16 -39 -10 -11 -27 -37 -40 -45 -23
-5 9 -7 9 -12 0 -5 -12 -34 -19 -34 -9 0 11 56 66 67 66 7 0 13 5 13 10 0 6
-6 10 -13 10 -7 0 -18 5 -25 12 -7 7 -30 11 -52 9 -34 -2 -40 0 -40 17 0 31
-27 47 -58 36 -44 -15 -77 -6 -96 27 -10 17 -34 37 -54 46 -21 8 -61 27 -89
41 -29 14 -63 26 -75 28 -37 4 -78 23 -78 35 0 8 10 9 33 4 80 -18 107 -20
182 -12 44 5 87 15 95 23 12 12 11 14 -10 14 -14 0 -32 5 -40 11 -11 7 4 9 51
4 53 -5 69 -3 82 9 9 9 23 16 31 16 10 0 13 6 10 15 -4 8 -17 15 -31 15 -13 0
-21 4 -18 10 4 6 -8 10 -29 10 -19 0 -38 5 -41 10 -3 6 -14 10 -23 10 -13 0
-13 -2 4 -15 18 -14 18 -14 -11 -16 -21 0 -9 -6 40 -19 47 -12 60 -19 40 -19
-41 -1 -223 25 -260 37 -28 10 -26 10 25 12 30 1 49 4 43 7 -24 9 -13 18 24
20 20 1 39 7 43 12 4 8 17 8 41 0 56 -16 121 -27 112 -19 -15 15 -137 43 -223
51 -136 13 -459 19 -431 8 14 -5 36 -7 51 -4 25 5 83 -16 95 -36 14 -22 -78
-13 -130 13 -22 12 -51 24 -65 28 -25 8 -25 8 10 23 19 8 63 18 96 21 93 8
150 25 176 53 l23 25 -32 -7 c-26 -5 -33 -3 -33 9 0 9 5 16 11 16 5 0 8 4 4 9
-3 6 4 15 15 21 11 6 20 17 20 25 0 7 11 27 25 43 14 17 25 33 25 38 0 4 12
25 26 46 28 40 53 53 34 17 -17 -31 -8 -30 23 2 22 22 24 29 12 29 -9 0 -15 3
-13 8 2 4 13 26 24 49 10 24 25 43 32 43 18 0 27 -29 13 -43 -14 -14 -14 -27
0 -27 5 0 7 5 4 11 -4 6 2 13 14 16 12 3 21 12 21 20 0 12 7 14 28 10 21 -4
33 0 45 14 10 11 31 22 47 26 22 4 35 15 47 40 12 27 18 31 24 20 6 -9 18 -13
35 -9 17 3 25 1 21 -5 -8 -13 34 -35 59 -33 33 4 37 1 23 -17 -8 -9 -9 -14 -2
-10 16 10 43 -2 43 -20 0 -11 7 -13 25 -9 18 5 28 1 37 -13 6 -10 18 -17 25
-14 7 3 19 1 26 -5 9 -8 19 -4 35 13 21 22 24 22 53 8 16 -8 38 -13 48 -10 11
2 21 -4 28 -19 10 -21 9 -24 -8 -24 -17 0 -18 -3 -9 -20 6 -11 18 -20 26 -20
8 0 13 -4 10 -9 -11 -16 33 -19 55 -3 16 11 24 12 27 4 2 -7 15 -12 28 -12 15
0 24 -6 24 -16 0 -11 6 -13 19 -9 11 3 22 2 25 -3 3 -6 -4 -12 -15 -15 -12 -3
-18 -10 -14 -16 9 -15 31 -14 47 2 7 7 22 16 33 19 11 3 28 9 38 13 10 4 17 3
17 -4 0 -6 -16 -17 -35 -25 -43 -18 -46 -30 -5 -21 33 7 41 -8 13 -24 -16 -9
-15 -11 7 -19 14 -5 26 -6 28 -1 6 15 22 10 22 -6 0 -24 20 -17 30 10 14 37
33 32 25 -7 -4 -18 -12 -39 -17 -45 -8 -9 -6 -13 5 -13 8 0 17 -4 19 -8 2 -5
15 -12 29 -15 24 -6 26 -4 21 18 -6 32 17 41 54 23 31 -15 43 -38 21 -38 -9 0
-17 5 -19 11 -2 5 -11 7 -22 3 -15 -6 -13 -9 15 -21 22 -9 35 -10 39 -3 7 11
40 3 40 -9 0 -4 -5 -12 -12 -19 -6 -6 -9 -15 -5 -19 4 -4 13 -1 19 5 15 15 48
16 48 1 0 -8 6 -7 17 2 15 12 16 12 10 -4 -6 -16 -3 -18 23 -12 19 4 30 3 30
-4 0 -6 5 -11 10 -11 6 0 22 -7 35 -16 20 -13 22 -19 13 -34 -9 -15 -9 -25 2
-44 7 -14 19 -26 25 -26 6 0 21 -14 34 -31 21 -28 24 -29 35 -13 16 22 70 29
62 8 -3 -9 1 -14 14 -14 11 0 24 -9 29 -19 9 -15 7 -20 -10 -24 -20 -5 -19 -8
14 -42 26 -26 41 -35 55 -31 11 4 24 0 32 -9 7 -8 19 -15 27 -15 10 0 13 -6 9
-16 -3 -9 -6 -18 -6 -20 0 -2 -4 -4 -10 -4 -5 0 -10 5 -10 11 0 14 -25 39 -39
39 -18 0 -13 -15 14 -44 13 -14 33 -26 45 -26 11 0 20 -4 20 -10 0 -5 11 -12
24 -16 14 -3 27 -12 30 -20 4 -10 14 -12 31 -8 20 5 24 3 19 -10 -3 -9 -11
-16 -18 -17 -6 0 -2 -4 9 -8 20 -8 20 -8 -1 -15 -14 -4 -23 -17 -26 -36 -5
-31 12 -46 31 -27 8 8 11 5 11 -11 0 -19 3 -20 25 -12 24 9 36 -2 15 -15 -5
-3 -10 -15 -10 -26 0 -10 -6 -19 -12 -20 -7 0 -4 -4 7 -8 12 -5 25 -3 33 6 29
29 39 4 19 -49 -17 -45 -17 -50 -2 -44 8 3 22 9 31 13 13 5 15 3 7 -13 -12
-23 -6 -44 11 -44 21 0 42 32 45 68 2 27 -1 32 -21 33 -13 0 -17 3 -10 6 6 2
9 9 6 14 -3 6 -1 16 5 23 14 17 -8 76 -28 76 -11 0 -12 3 -4 11 12 12 -5 59
-21 59 -5 0 -3 7 4 15 10 12 10 15 -3 15 -10 0 -14 6 -11 14 7 17 -24 86 -38
86 -6 0 -8 6 -5 14 3 8 3 17 -1 21 -4 4 -7 10 -7 13 -1 4 -8 23 -17 42 -9 19
-19 51 -22 70 -3 19 -8 46 -12 60 -6 23 -5 24 10 9 15 -14 22 -32 25 -61 2
-14 32 -8 37 7 9 23 42 18 66 -10 23 -26 62 -33 74 -13 4 6 -4 20 -19 33 -15
11 -27 25 -27 29 0 5 -7 14 -17 21 -13 10 -11 11 15 7 18 -2 30 -7 28 -11 -8
-13 14 -51 29 -51 8 0 15 -6 15 -12 1 -8 6 -6 14 5 8 10 26 17 46 17 23 0 33
5 37 19 3 12 11 17 19 14 23 -9 16 9 -18 44 l-32 33 22 27 c55 69 102 133 102
138 0 4 18 32 40 62 22 31 40 64 40 73 0 21 55 72 152 143 43 31 84 69 92 85
8 15 30 52 50 82 40 60 45 102 19 140 -26 38 -65 70 -93 76 -42 9 -56 17 -100
58 l-42 38 25 26 c24 24 33 26 124 26 80 1 105 5 138 23 46 24 95 70 95 88 0
7 -16 36 -35 65 -28 42 -35 61 -35 102 0 42 -4 54 -29 76 -15 15 -48 34 -73
44 -43 15 -45 15 -41 -1 2 -9 -7 -29 -20 -43 l-25 -27 29 -6 c48 -11 33 -20
-33 -21 -35 -1 -93 -4 -129 -9 -56 -6 -78 -4 -140 16 -47 14 -100 23 -146 23
-40 1 -73 1 -73 1 0 1 9 18 20 40 11 22 20 52 20 67 0 15 4 29 9 33 6 3 7 27
4 54 -3 31 -1 51 6 55 20 13 12 35 -20 51 -21 12 -28 20 -21 28 23 28 87 271
97 370 4 37 11 67 15 67 5 0 7 -12 5 -27 -2 -16 -7 -59 -11 -98 -4 -38 -11
-76 -16 -82 -6 -7 -7 -20 -4 -30 4 -9 1 -20 -6 -24 -10 -6 -8 -12 7 -23 17
-12 18 -17 7 -40 -10 -23 -9 -26 6 -26 9 0 24 -5 32 -10 12 -7 10 -11 -10 -19
-22 -9 -23 -10 -5 -12 11 -1 23 -1 27 0 4 0 26 -6 49 -14 23 -8 59 -15 80 -15
22 0 39 -4 39 -10 0 -5 13 -10 29 -10 16 0 36 -7 45 -15 16 -17 86 -21 86 -5
0 6 18 10 40 10 22 0 40 4 40 9 0 4 29 11 65 15 36 4 72 9 80 12 10 4 15 0 15
-15 0 -18 6 -21 39 -21 22 0 41 -3 43 -8 2 -4 37 -24 78 -45 75 -38 77 -38
118 -24 40 14 42 14 42 -4 0 -13 7 -19 23 -19 18 1 7 16 -63 82 -234 224 -459
382 -759 532 -146 74 -172 84 -170 69 4 -24 -2 -63 -9 -63 -5 0 -8 18 -6 40 2
38 0 41 -33 55 -51 22 -55 20 -53 -27 3 -67 -1 -68 -14 -3 l-11 59 -68 24
c-234 80 -521 136 -782 152 -211 13 -1525 13 -1505 0z m1803 -237 c-7 -2 -19
-2 -25 0 -7 3 -2 5 12 5 14 0 19 -2 13 -5z m673 -150 c-14 -124 -99 -401 -128
-419 -22 -14 -26 14 -6 56 27 61 72 204 99 323 25 107 46 131 35 40z m-70 -80
c-18 -33 -21 -26 -6 13 6 15 13 24 16 21 3 -3 -1 -18 -10 -34z m179 -273 c3
-5 1 -10 -4 -10 -6 0 -11 5 -11 10 0 6 2 10 4 10 3 0 8 -4 11 -10z m-265 -13
c0 -7 -7 -22 -15 -33 -12 -16 -14 -17 -15 -2 0 23 11 48 21 48 5 0 9 -6 9 -13z
m883 -34 c-7 -2 -19 -2 -25 0 -7 3 -2 5 12 5 14 0 19 -2 13 -5z m-875 -32 c9
-5 26 -13 37 -16 13 -5 16 -9 7 -12 -7 -3 -20 -1 -30 3 -9 4 -23 8 -31 8 -17
1 -28 26 -12 26 6 0 19 -4 29 -9z m-38 -41 c0 -12 -28 -25 -36 -17 -9 9 6 27
22 27 8 0 14 -5 14 -10z m61 -22 c47 -14 56 -48 12 -48 -29 0 -63 25 -63 47 0
16 3 16 51 1z m-64 -59 c82 -36 117 -56 121 -69 3 -8 -2 -10 -17 -5 -11 3 -21
2 -21 -3 0 -5 -17 -13 -37 -17 -21 -4 -41 -9 -45 -12 -12 -7 11 -43 26 -43 8
0 16 -10 20 -22 4 -18 8 -20 18 -10 17 17 28 15 26 -5 -4 -47 7 -65 75 -131
l72 -71 10 29 c14 40 16 41 78 45 38 3 68 -1 94 -12 21 -9 61 -19 88 -22 46
-6 50 -8 47 -30 -3 -34 -6 -35 -52 -23 -40 10 -54 1 -23 -16 9 -5 14 -16 11
-24 -5 -11 -21 -14 -69 -11 -47 3 -60 1 -49 -6 8 -6 22 -11 31 -11 9 0 21 -6
27 -12 15 -19 -60 -17 -82 1 -9 8 -18 12 -20 10 -2 -2 32 -42 76 -88 81 -87
125 -141 112 -141 -3 0 -1 -7 6 -15 7 -8 23 -15 35 -15 18 0 22 4 18 20 -9 35
23 23 56 -22 33 -45 34 -62 0 -32 -20 18 -20 18 -14 -8 8 -29 -11 -45 -55 -47
-136 -7 -124 -9 -135 26 -6 19 -44 65 -88 108 -42 41 -77 78 -77 83 0 5 -13
12 -29 15 -21 4 -38 22 -67 66 -21 34 -43 61 -49 61 -10 1 -127 174 -133 198
-2 6 4 12 12 12 25 0 19 37 -11 70 -16 17 -34 37 -41 45 -40 47 -117 11 -142
-67 -8 -23 -17 -45 -21 -48 -9 -7 -39 -67 -39 -80 0 -5 7 -10 15 -10 8 0 15
-7 15 -15 0 -17 -21 -20 -36 -5 -8 8 -15 6 -25 -6 -12 -14 -10 -19 14 -40 59
-51 95 -26 169 114 12 23 25 42 28 42 12 0 46 -44 90 -115 24 -38 54 -83 67
-98 13 -16 21 -33 17 -38 -3 -5 1 -9 9 -9 14 0 37 -60 37 -96 0 -11 9 -34 20
-52 25 -40 25 -42 -1 -42 -16 0 -19 -4 -14 -20 4 -13 2 -20 -6 -20 -7 0 -10
-3 -6 -6 3 -3 16 1 29 10 34 24 48 20 48 -14 0 -34 -2 -35 -31 -17 -17 10 -23
10 -26 0 -6 -15 -43 -17 -43 -3 0 6 -8 10 -19 10 -10 0 -24 7 -31 15 -7 8 -18
15 -25 15 -22 0 -42 34 -49 82 -7 44 -5 50 21 74 50 47 62 49 74 15 6 -17 15
-28 20 -25 16 10 9 49 -12 68 -21 18 -23 17 -63 -11 -22 -16 -52 -48 -65 -72
-19 -35 -28 -42 -47 -38 -21 4 -22 1 -17 -24 6 -30 -12 -40 -32 -20 -6 5 -27
16 -47 25 -36 14 -38 14 -38 -4 0 -10 15 -28 36 -41 25 -15 32 -24 23 -29 -7
-5 -19 -6 -26 -3 -8 3 -29 -9 -48 -27 -28 -27 -36 -30 -53 -21 -36 19 -62 14
-62 -14 0 -13 -6 -28 -13 -32 -8 -4 -16 -16 -20 -26 -5 -14 -2 -16 16 -12 42
10 48 -6 24 -68 -22 -57 -32 -64 -72 -47 -20 8 -20 9 1 9 26 1 49 27 58 64 5
20 3 27 -9 27 -8 0 -15 -4 -15 -9 0 -5 -10 -11 -22 -13 -15 -2 -24 -11 -26
-26 -4 -27 -34 -44 -70 -40 -25 3 -27 6 -25 46 1 24 11 63 22 86 12 23 21 47
21 53 0 5 18 26 41 47 27 23 39 42 35 52 -3 8 1 29 10 46 8 16 13 32 11 35 -9
8 -46 -16 -57 -37 -20 -37 -27 -20 -12 26 8 26 11 49 6 54 -14 14 -107 -13
-132 -37 -25 -26 -50 -30 -58 -9 -3 8 -12 12 -20 9 -10 -4 -14 4 -15 28 0 19
-4 43 -8 54 -7 17 -9 15 -20 -16 l-12 -36 -67 19 c-37 10 -83 24 -103 30 -20
6 -49 20 -65 33 l-27 22 22 22 c12 12 21 30 20 39 -4 22 51 79 99 105 20 10
46 27 57 36 11 10 38 27 60 38 22 11 80 41 130 68 l90 47 81 -7 c105 -9 171 1
201 31 12 12 31 25 42 29 10 3 27 17 36 31 9 13 20 22 25 19 6 -4 20 1 32 9
27 19 18 20 75 -5z m-117 -180 c0 -25 -61 -140 -77 -146 -7 -3 -20 -3 -28 1
-13 5 -12 13 9 54 27 54 72 112 87 112 5 0 9 -9 9 -21z m-4706 -286 c-47 -23
-64 -60 -64 -142 0 -73 23 -141 70 -214 l22 -32 -32 35 c-55 61 -80 108 -93
178 -15 79 -9 104 43 157 22 23 43 35 59 34 26 0 26 0 -5 -16z m106 -23 c0 -5
-2 -10 -4 -10 -3 0 -8 5 -11 10 -3 6 -1 10 4 10 6 0 11 -4 11 -10z m1060 -9
c0 -5 -9 -11 -20 -14 -20 -5 -26 3 -13 16 9 10 33 8 33 -2z m2500 -21 c13 -9
13 -10 0 -10 -8 0 -22 5 -30 10 -13 9 -13 10 0 10 8 0 22 -5 30 -10z m-3340
-10 c0 -5 -4 -10 -10 -10 -5 0 -10 5 -10 10 0 6 5 10 10 10 6 0 10 -4 10 -10z
m1058 -16 c12 -8 22 -18 22 -23 0 -14 -54 -20 -69 -8 -8 7 -22 11 -33 9 -21
-4 -26 33 -5 41 17 7 58 -3 85 -19z m861 -8 c46 -8 87 -19 90 -22 14 -15 -199
19 -226 36 -22 13 10 10 136 -14z m1490 10 c9 -11 6 -12 -14 -8 -14 2 -25 8
-25 13 0 14 26 11 39 -5z m-2155 -102 c16 -6 12 -8 -20 -11 -36 -3 -41 -7 -37
-24 4 -14 14 -19 38 -19 34 0 75 -33 56 -45 -6 -3 -15 -4 -20 -1 -11 7 -74
-14 -83 -28 -4 -6 0 -16 8 -23 15 -11 14 -13 -8 -18 -13 -3 -36 -1 -51 4 -15
6 -33 10 -40 8 -7 -1 -11 6 -9 16 2 10 -5 20 -15 23 -63 21 -152 62 -178 81
-89 69 -90 71 -78 84 10 10 22 3 57 -34 82 -87 156 -101 251 -48 61 35 63 39
33 66 -16 13 -28 27 -28 30 0 10 36 5 48 -7 10 -10 14 -8 19 12 6 22 8 21 22
-17 8 -24 23 -45 35 -49z m793 60 c-3 -3 -12 -4 -19 -1 -8 3 -5 6 6 6 11 1 17
-2 13 -5z m-1882 -24 c-3 -5 -11 -10 -16 -10 -6 0 -7 5 -4 10 3 6 11 10 16 10
6 0 7 -4 4 -10z m-395 -30 c0 -5 -12 -10 -26 -10 -14 0 -23 4 -19 10 3 6 15
10 26 10 10 0 19 -4 19 -10z m4979 -84 c52 -60 63 -83 36 -72 -17 6 -18 4 -9
-18 3 -9 12 -16 20 -16 7 0 16 -11 20 -25 3 -13 15 -27 25 -30 21 -7 26 -25 6
-25 -6 0 -26 4 -44 9 -45 13 -47 4 -7 -31 31 -27 33 -33 21 -46 -13 -13 -19
-12 -46 4 -17 10 -31 23 -31 28 0 5 -10 20 -22 33 -19 20 -20 25 -8 33 8 5 30
10 49 10 33 0 34 0 16 20 -10 11 -30 20 -44 20 -36 0 -71 11 -71 21 0 14 40
10 41 -3 0 -7 5 -3 12 10 7 16 17 22 29 19 26 -7 23 4 -17 62 -19 28 -35 54
-35 57 0 4 2 5 4 3 2 -2 27 -31 55 -63z m-3654 44 c-3 -5 -13 -10 -21 -10 -8
0 -12 5 -9 10 3 6 13 10 21 10 8 0 12 -4 9 -10z m-760 -30 c-3 -5 -11 -10 -16
-10 -6 0 -7 5 -4 10 3 6 11 10 16 10 6 0 7 -4 4 -10z m569 -6 c19 -7 21 -34 3
-34 -8 0 -22 9 -32 20 -16 17 -16 20 -2 20 8 0 22 -3 31 -6z m481 -4 c8 -13
-5 -13 -25 0 -13 8 -13 10 2 10 9 0 20 -4 23 -10z m-405 -41 c0 -5 -9 -9 -20
-9 -11 0 -20 6 -20 14 0 9 7 12 20 9 11 -3 20 -9 20 -14z m360 6 c0 -9 -20
-20 -52 -30 -67 -20 -75 -19 -53 5 12 13 25 17 45 14 19 -4 29 -1 33 10 8 20
27 21 27 1z m100 -5 c13 -8 13 -10 -2 -10 -9 0 -30 -13 -45 -30 -20 -21 -32
-27 -42 -21 -12 7 -12 13 -3 24 7 7 9 17 5 21 -20 20 58 35 87 16z m-1624 -99
c22 -41 58 -92 81 -115 41 -39 53 -69 34 -80 -38 -24 -194 218 -174 269 7 21
13 14 59 -74z m1228 81 c2 -4 -2 -15 -9 -25 -12 -16 -14 -16 -29 -2 -9 9 -16
21 -16 26 0 11 47 12 54 1z m3295 -24 c18 -42 19 -53 4 -54 -7 -1 -19 -2 -27
-3 -8 0 -20 -18 -27 -38 -6 -21 -18 -47 -25 -58 -8 -11 -14 -28 -14 -37 0 -31
-48 -98 -70 -98 -11 0 -20 6 -20 13 1 38 22 93 42 111 13 12 30 40 36 64 7 23
17 42 22 42 6 0 10 7 10 15 0 25 29 75 43 75 7 0 19 -15 26 -32z m151 -7 c12
-31 1 -71 -21 -71 -5 0 -26 -17 -44 -37 -19 -21 -35 -35 -35 -32 0 3 13 35 28
70 16 35 32 72 35 82 9 25 23 21 37 -12z m-2996 4 c13 -8 32 -15 42 -14 37 4
56 -1 51 -13 -2 -7 -13 -12 -24 -10 -11 1 -25 -3 -31 -10 -9 -11 -4 -13 21
-12 18 1 49 6 70 10 23 4 37 3 37 -4 0 -15 -47 -42 -64 -36 -8 3 -31 -3 -52
-14 l-38 -20 -11 22 c-8 17 -51 46 -87 58 -19 7 6 47 31 51 14 2 27 5 29 6 1
0 13 -6 26 -14z m46 5 c0 -5 -2 -10 -4 -10 -3 0 -8 5 -11 10 -3 6 -1 10 4 10
6 0 11 -4 11 -10z m-1490 -74 c0 -5 -13 3 -30 19 -16 16 -30 33 -30 39 0 5 14
-3 30 -19 17 -16 30 -33 30 -39z m1660 14 c0 -5 -5 -10 -11 -10 -5 0 -7 5 -4
10 3 6 8 10 11 10 2 0 4 -4 4 -10z m1098 -12 c-6 -18 -28 -21 -28 -4 0 9 7 16
16 16 9 0 14 -5 12 -12z m1712 2 c0 -5 -5 -10 -11 -10 -5 0 -7 5 -4 10 3 6 8
10 11 10 2 0 4 -4 4 -10z m-1896 -6 c20 -8 20 -20 1 -28 -16 -6 -55 13 -55 26
0 10 32 10 54 2z m1711 -83 c-23 -75 -55 -131 -71 -124 -14 5 -1 56 22 83 7 9
23 42 36 75 28 74 38 48 13 -34z m-2955 69 c0 -5 -2 -10 -4 -10 -3 0 -8 5 -11
10 -3 6 -1 10 4 10 6 0 11 -4 11 -10z m1917 -26 c-3 -3 -12 -4 -19 -1 -8 3 -5
6 6 6 11 1 17 -2 13 -5z m-3292 -14 c3 -5 -3 -10 -14 -10 -12 0 -21 5 -21 10
0 6 6 10 14 10 8 0 18 -4 21 -10z m2680 -10 c3 -5 -1 -10 -9 -10 -9 0 -16 5
-16 10 0 6 4 10 9 10 6 0 13 -4 16 -10z m670 0 c-3 -5 -12 -7 -20 -3 -21 7
-19 13 6 13 11 0 18 -4 14 -10z m-1176 -20 c27 0 38 -4 38 -15 0 -8 -9 -15
-19 -15 -10 0 -18 4 -18 9 0 5 -10 11 -22 13 -12 2 -23 9 -24 16 -1 7 0 8 3 2
2 -5 22 -10 42 -10z m686 -9 c-3 -6 -14 -11 -23 -11 -15 1 -15 2 2 15 21 16
32 13 21 -4z m567 3 c71 -26 80 -30 163 -70 44 -21 103 -52 130 -68 50 -30
194 -136 225 -165 9 -9 42 -39 73 -68 31 -29 57 -57 57 -63 0 -5 4 -10 8 -10
5 0 26 -25 47 -55 21 -31 43 -59 50 -63 16 -10 78 -102 72 -108 -5 -5 -70 57
-103 100 -11 14 -50 57 -86 94 -61 62 -96 93 -188 168 -19 16 -39 34 -45 40
-14 15 -93 67 -200 131 -49 29 -97 58 -105 63 -8 6 -36 20 -62 32 -27 12 -48
25 -48 30 0 4 -9 8 -19 8 -11 0 -23 5 -26 10 -9 14 8 12 57 -6z m1128 2 c0 -3
-4 -8 -10 -11 -5 -3 -10 -1 -10 4 0 6 5 11 10 11 6 0 10 -2 10 -4z m-1900 -26
c0 -11 -4 -20 -9 -20 -13 0 -32 26 -24 33 13 14 33 6 33 -13z m-2552 -16 c-4
-20 -34 -41 -44 -31 -8 8 24 47 38 47 5 0 8 -7 6 -16z m2842 -8 c0 -8 -4 -17
-9 -21 -12 -7 -24 12 -16 25 9 15 25 12 25 -4z m1614 -2 c9 -23 0 -32 -29 -26
-28 5 -31 12 -13 30 17 17 35 15 42 -4z m-138 -16 c-3 -7 -9 -21 -12 -30 -4
-10 -13 -18 -20 -18 -18 0 -18 10 2 38 16 23 40 31 30 10z m-4110 -14 c22 -9
45 -21 51 -26 20 -16 4 -29 -20 -16 -12 6 -37 10 -57 10 -58 -3 -90 7 -90 29
0 15 7 19 39 19 21 0 56 -7 77 -16z m2720 1 c-23 -17 -36 -19 -36 -6 0 5 8 12
18 14 32 9 37 6 18 -8z m1434 5 c0 -5 -7 -10 -16 -10 -8 0 -12 5 -9 10 3 6 10
10 16 10 5 0 9 -4 9 -10z m-4428 -42 c-15 -15 -26 -4 -18 18 5 13 9 15 18 6 9
-9 9 -15 0 -24z m4462 17 c-7 -16 -24 -21 -24 -6 0 8 7 13 27 20 1 1 0 -6 -3
-14z m-3964 -51 c0 -2 -7 -4 -15 -4 -8 0 -15 4 -15 10 0 5 7 7 15 4 8 -4 15
-8 15 -10z m3843 -11 c8 -7 -11 -33 -24 -33 -5 0 -9 9 -9 20 0 19 20 27 33 13z
m-353 -65 c0 -10 6 -18 13 -19 14 -1 73 -69 60 -69 -6 0 -24 16 -42 35 -17 19
-36 35 -41 35 -12 0 -23 37 -14 51 8 14 24 -8 24 -33z m-570 3 c0 -14 -18 -23
-30 -16 -6 4 -8 11 -5 16 8 12 35 12 35 0z m70 -71 c0 -5 -5 -10 -11 -10 -5 0
-7 5 -4 10 3 6 8 10 11 10 2 0 4 -4 4 -10z m1060 -34 c0 -6 -20 -24 -45 -39
-46 -29 -66 -64 -45 -77 7 -4 9 -13 6 -19 -9 -15 -51 -14 -76 1 -10 7 -23 9
-27 4 -8 -7 3 -18 43 -41 14 -9 15 -15 5 -33 -6 -12 -15 -22 -19 -22 -16 1
-55 39 -57 56 -3 38 -16 59 -45 76 -43 25 -40 51 5 45 20 -3 42 -10 49 -16 10
-9 16 -9 21 -1 4 6 14 9 23 8 11 -2 16 3 14 15 -3 19 24 24 31 5 5 -13 9 -11
67 45 25 24 50 21 50 -7z m-950 -21 c0 -8 -7 -15 -15 -15 -16 0 -20 12 -8 23
11 12 23 8 23 -8z m-3245 -31 c36 -9 65 -21 65 -26 0 -6 -10 -8 -22 -5 -90 22
-153 38 -157 42 -10 11 53 4 114 -11z m4272 -10 c-3 -3 -12 -4 -19 -1 -8 3 -5
6 6 6 11 1 17 -2 13 -5z m-117 -54 c0 -5 -7 -10 -16 -10 -8 0 -12 5 -9 10 3 6
10 10 16 10 5 0 9 -4 9 -10z m-3560 -20 c11 -11 20 -28 20 -39 0 -10 7 -24 15
-31 8 -7 15 -20 15 -29 0 -9 9 -33 20 -54 11 -20 20 -44 20 -53 0 -12 -5 -10
-20 9 -11 14 -20 35 -20 47 0 12 -16 48 -35 80 -19 32 -35 62 -35 68 0 6 -6
13 -12 15 -10 4 -10 6 0 6 6 1 21 -8 32 -19z m78 3 c2 -8 -6 -13 -22 -13 -28
0 -43 15 -24 23 20 8 41 3 46 -10z m122 -34 c0 -5 -9 -9 -20 -9 -22 0 -27 16
-7 23 15 5 27 -1 27 -14z m95 -8 c3 -5 1 -12 -5 -16 -13 -8 -50 3 -50 16 0 12
47 12 55 0z m40 -21 c-3 -5 -10 -10 -16 -10 -5 0 -9 5 -9 10 0 6 7 10 16 10 8
0 12 -4 9 -10z m83 -6 c38 -11 24 -19 -24 -15 -32 2 -42 6 -33 12 17 10 26 11
57 3z m612 -45 c0 -6 -4 -7 -10 -4 -5 3 -10 11 -10 16 0 6 5 7 10 4 6 -3 10
-11 10 -16z m1970 11 c0 -5 -4 -10 -10 -10 -5 0 -10 5 -10 10 0 6 5 10 10 10
6 0 10 -4 10 -10z m-2483 -6 c-3 -3 -12 -4 -19 -1 -8 3 -5 6 6 6 11 1 17 -2
13 -5z m461 -32 c103 -11 151 -34 193 -93 21 -30 21 -32 3 -25 -10 5 -37 7
-59 6 -95 -7 -256 -2 -269 9 -8 7 -25 11 -38 9 -31 -3 -140 12 -153 22 -5 4
-30 12 -55 18 -65 15 -124 38 -128 50 -2 6 12 13 30 15 53 7 374 -1 476 -11z
m2052 10 c0 -13 -12 -22 -22 -16 -10 6 -1 24 13 24 5 0 9 -4 9 -8z m35 -32 c3
-5 -1 -10 -9 -10 -9 0 -16 5 -16 10 0 6 4 10 9 10 6 0 13 -4 16 -10z m-2820
-68 c-2 -2 -20 0 -41 4 -22 4 -33 9 -26 11 6 3 10 9 6 14 -3 5 10 1 29 -8 19
-10 34 -19 32 -21z m1260 13 c47 -13 48 -14 15 -14 -19 0 -51 7 -70 14 -47 18
-10 18 55 0z m-25 -45 c20 -6 21 -8 5 -8 -11 0 -29 3 -40 8 -25 11 1 11 35 0z
m1730 6 c0 -3 -4 -8 -10 -11 -5 -3 -10 -1 -10 4 0 6 5 11 10 11 6 0 10 -2 10
-4z m-2455 -16 c3 -5 -3 -10 -14 -10 -12 0 -21 5 -21 10 0 6 6 10 14 10 8 0
18 -4 21 -10z m2475 -20 c0 -5 -4 -10 -10 -10 -5 0 -10 5 -10 10 0 6 5 10 10
10 6 0 10 -4 10 -10z m60 -4 c0 -3 -4 -8 -10 -11 -5 -3 -10 -1 -10 4 0 6 5 11
10 11 6 0 10 -2 10 -4z m115 -246 c3 -5 1 -10 -4 -10 -6 0 -11 5 -11 10 0 6 2
10 4 10 3 0 8 -4 11 -10z m-1526 -443 c0 -21 -1 -21 -9 -2 -12 28 -12 37 0 30
6 -3 10 -16 9 -28z m-79 -67 c0 -5 -4 -10 -10 -10 -5 0 -10 5 -10 10 0 6 5 10
10 10 6 0 10 -4 10 -10z m-400 -24 c0 -8 -7 -21 -15 -30 -8 -8 -18 -29 -22
-46 -3 -18 -13 -34 -22 -37 -27 -10 -53 -43 -48 -61 4 -14 6 -14 12 5 6 17 55
41 55 26 0 -14 -23 -43 -34 -43 -7 0 -18 -12 -25 -26 -11 -25 -10 -26 14 -22
14 3 25 2 25 -2 0 -4 -26 -11 -57 -15 -46 -6 -59 -4 -68 9 -7 9 -15 13 -18 9
-4 -3 -7 -1 -7 5 0 6 5 14 10 17 6 3 10 1 10 -4 0 -23 20 -10 26 17 4 15 11
33 17 40 6 8 6 12 -2 12 -6 0 -11 -5 -11 -12 0 -6 -2 -9 -5 -7 -8 8 19 69 30
69 13 0 39 30 43 51 6 23 23 38 38 32 7 -3 17 2 20 11 8 20 34 21 34 2z m410
-6 c0 -5 -5 -10 -11 -10 -5 0 -7 5 -4 10 3 6 8 10 11 10 2 0 4 -4 4 -10z
m-540 -10 c0 -5 -9 -10 -21 -10 -11 0 -17 5 -14 10 3 6 13 10 21 10 8 0 14 -4
14 -10z m16 -37 c-10 -10 -19 5 -10 18 6 11 8 11 12 0 2 -7 1 -15 -2 -18z
m1117 7 c15 -7 27 -22 27 -32 0 -26 -11 -21 -45 20 -16 20 -25 34 -20 31 6 -3
22 -11 38 -19z m-603 -23 c0 -4 -6 -2 -14 5 -8 7 -12 17 -9 22 5 8 23 -12 23
-27z m565 -52 c26 -25 33 -55 14 -55 -22 0 -48 21 -43 34 3 8 1 17 -5 21 -6 3
-11 10 -11 16 0 16 20 10 45 -16z m-915 6 c0 -14 -18 -23 -30 -16 -6 4 -8 11
-5 16 8 12 35 12 35 0z m60 -35 c0 -3 -4 -8 -10 -11 -5 -3 -10 -1 -10 4 0 6 5
11 10 11 6 0 10 -2 10 -4z m-280 -42 c0 -8 -5 -12 -10 -9 -6 4 -8 11 -5 16 9
14 15 11 15 -7z m1150 -64 c0 -5 -2 -10 -4 -10 -3 0 -8 5 -11 10 -3 6 -1 10 4
10 6 0 11 -4 11 -10z m-295 -172 c-2 -96 -19 -178 -35 -178 -16 0 -22 44 -11
74 15 37 14 43 -4 20 -14 -19 -14 -19 -15 2 0 32 52 174 64 174 2 0 2 -42 1
-92z m335 -60 c0 -43 -8 -68 -22 -68 -6 0 -8 18 -4 43 3 23 5 53 6 67 1 41 20
2 20 -42z m-3127 -58 c46 0 77 -4 72 -9 -14 -12 -245 -1 -245 12 0 6 18 7 46
3 26 -3 83 -6 127 -6z m2833 -62 c-3 -40 -5 -81 -5 -91 -1 -11 -6 -15 -12 -11
-6 3 -9 17 -6 30 2 14 0 27 -4 30 -5 3 -9 12 -9 21 0 16 31 93 37 93 1 0 1
-33 -1 -72z m-2668 35 c-10 -2 -26 -2 -35 0 -10 3 -2 5 17 5 19 0 27 -2 18 -5z
m2062 -188 c-6 -8 -9 -19 -5 -25 3 -5 2 -10 -3 -10 -12 0 -24 29 -16 41 3 5
12 9 21 9 12 0 13 -3 3 -15z m-1702 -52 c-10 -2 -28 -2 -40 0 -13 2 -5 4 17 4
22 1 32 -1 23 -4z m1352 -42 c0 -5 -7 -11 -14 -14 -10 -4 -13 -1 -9 9 6 15 23
19 23 5z m-410 -51 c13 -8 11 -14 -13 -36 -19 -18 -26 -32 -22 -45 8 -23 -10
-26 -19 -3 -10 25 -7 43 10 69 18 28 22 29 44 15z"/>
<path d="M5836 4991 c-6 -10 33 -20 52 -13 7 2 10 8 6 13 -7 12 -51 12 -58 0z"/>
<path d="M5557 4246 c-4 -10 -5 -21 -2 -24 9 -9 17 6 13 25 -3 17 -4 17 -11
-1z"/>
<path d="M2642 4318 c-7 -7 -26 -17 -44 -22 -40 -14 -49 -36 -14 -36 27 0 94
54 79 63 -6 4 -15 1 -21 -5z"/>
<path d="M2920 4220 c-8 -5 -11 -12 -7 -16 4 -4 15 0 24 9 18 18 8 23 -17 7z"/>
<path d="M2749 5949 c-10 -6 -2 -9 25 -9 40 0 45 8 9 14 -11 3 -26 0 -34 -5z"/>
<path d="M2328 5903 c7 -3 16 -2 19 1 4 3 -2 6 -13 5 -11 0 -14 -3 -6 -6z"/>
<path d="M2231 5891 c-7 -5 -9 -11 -5 -14 13 -7 74 4 74 14 0 11 -51 11 -69 0z"/>
<path d="M4227 5654 c-8 -8 1 -24 14 -24 5 0 9 7 9 15 0 15 -12 20 -23 9z"/>
<path d="M5970 5420 c0 -11 2 -20 4 -20 2 0 6 9 9 20 3 11 1 20 -4 20 -5 0 -9
-9 -9 -20z"/>
<path d="M6640 5140 c0 -5 7 -10 15 -10 8 0 15 5 15 10 0 6 -7 10 -15 10 -8 0
-15 -4 -15 -10z"/>
<path d="M6738 5143 c12 -2 32 -2 45 0 12 2 2 4 -23 4 -25 0 -35 -2 -22 -4z"/>
<path d="M6611 5109 c31 -4 69 -4 85 1 21 6 7 8 -56 8 -84 0 -84 -1 -29 -9z"/>
<path d="M2192 4245 c9 -10 21 -16 28 -13 7 2 -1 10 -16 17 -27 12 -28 11 -12
-4z"/>
<path d="M2323 4085 c37 -36 72 -77 78 -91 6 -17 14 -24 24 -20 9 3 21 -5 31
-22 18 -30 84 -68 84 -48 0 15 -48 66 -135 142 -133 116 -190 143 -82 39z"/>
<path d="M3080 4098 c0 -11 58 -10 65 1 3 5 -10 9 -30 8 -19 -1 -35 -5 -35 -9z"/>
<path d="M3165 4100 c-3 -5 -1 -10 4 -10 6 0 11 5 11 10 0 6 -2 10 -4 10 -3 0
-8 -4 -11 -10z"/>
<path d="M3390 4095 c0 -8 5 -15 10 -15 6 0 10 7 10 15 0 8 -4 15 -10 15 -5 0
-10 -7 -10 -15z"/>
<path d="M3340 4056 c0 -8 5 -18 10 -21 17 -11 9 -76 -16 -132 -26 -56 -29
-67 -15 -59 15 10 54 99 57 131 2 33 -15 95 -28 95 -4 0 -8 -6 -8 -14z"/>
<path d="M3420 4051 c0 -17 -4 -22 -16 -17 -12 5 -15 2 -10 -10 3 -8 6 -18 6
-20 0 -2 4 -4 9 -4 11 0 26 59 17 67 -3 4 -6 -4 -6 -16z"/>
<path d="M3164 4049 c-3 -6 -1 -16 5 -22 9 -9 14 -8 21 3 5 8 10 18 10 23 0
11 -28 8 -36 -4z"/>
<path d="M3785 4050 c-63 -18 -105 -35 -105 -43 0 -19 151 21 158 42 4 13 -10
13 -53 1z"/>
<path d="M3310 4030 c0 -5 5 -10 11 -10 5 0 7 5 4 10 -3 6 -8 10 -11 10 -2 0
-4 -4 -4 -10z"/>
<path d="M2960 4023 c1 -15 27 -43 33 -36 12 11 8 22 -13 33 -11 6 -20 7 -20
3z"/>
<path d="M984 3989 c-3 -5 6 -9 20 -9 31 0 34 6 6 13 -11 3 -23 1 -26 -4z"/>
<path d="M3210 3990 c-12 -8 -12 -10 5 -10 11 0 27 5 35 10 12 8 12 10 -5 10
-11 0 -27 -5 -35 -10z"/>
<path d="M3786 3985 c-11 -8 -31 -15 -45 -16 l-26 -1 25 -7 c14 -4 27 -4 30 0
3 4 14 8 24 10 11 2 21 10 24 17 5 16 -8 15 -32 -3z"/>
<path d="M3485 3960 c3 -5 8 -10 11 -10 2 0 4 5 4 10 0 6 -5 10 -11 10 -5 0
-7 -4 -4 -10z"/>
<path d="M3775 3920 c-3 -5 -2 -10 4 -10 5 0 13 5 16 10 3 6 2 10 -4 10 -5 0
-13 -4 -16 -10z"/>
<path d="M2906 3911 c-4 -7 -5 -15 -2 -18 9 -9 19 4 14 18 -4 11 -6 11 -12 0z"/>
<path d="M2943 3893 c-16 -6 -17 -33 -3 -33 11 0 26 28 19 34 -2 2 -10 1 -16
-1z"/>
<path d="M1613 3873 c9 -2 23 -2 30 0 6 3 -1 5 -18 5 -16 0 -22 -2 -12 -5z"/>
<path d="M3260 3860 c0 -5 5 -10 10 -10 6 0 10 5 10 10 0 6 -4 10 -10 10 -5 0
-10 -4 -10 -10z"/>
<path d="M2975 3850 c3 -5 8 -10 11 -10 2 0 4 5 4 10 0 6 -5 10 -11 10 -5 0
-7 -4 -4 -10z"/>
<path d="M3722 3841 c-11 -7 -11 -9 1 -14 9 -3 21 1 27 9 10 11 10 14 -1 14
-8 0 -20 -4 -27 -9z"/>
<path d="M2586 3822 c-4 -11 -15 -27 -26 -37 -25 -23 -25 -35 -2 -35 13 0 23
13 32 40 7 22 11 43 8 46 -4 3 -9 -3 -12 -14z"/>
<path d="M2957 3813 c-13 -13 -7 -20 18 -20 14 0 25 0 23 1 -2 1 -10 7 -19 14
-9 6 -19 9 -22 5z"/>
<path d="M1711 3776 c2 -2 24 -6 48 -9 29 -4 40 -2 30 4 -13 8 -88 14 -78 5z"/>
<path d="M3051 3766 c-9 -10 -8 -15 3 -19 16 -7 26 1 26 20 0 17 -14 17 -29
-1z"/>
<path d="M1890 3756 c0 -2 7 -7 16 -10 8 -3 12 -2 9 4 -6 10 -25 14 -25 6z"/>
<path d="M2478 3753 c6 -2 18 -2 25 0 6 3 1 5 -13 5 -14 0 -19 -2 -12 -5z"/>
<path d="M2972 3748 c7 -19 38 -22 38 -4 0 10 -9 16 -21 16 -12 0 -19 -5 -17
-12z"/>
<path d="M1935 3740 c11 -18 53 -30 77 -21 27 10 16 17 -41 26 -32 5 -42 4
-36 -5z"/>
<path d="M2690 3656 c0 -2 7 -6 15 -10 8 -3 15 -1 15 4 0 6 -7 10 -15 10 -8 0
-15 -2 -15 -4z"/>
<path d="M3874 3625 c-30 -21 -42 -35 -31 -35 15 0 101 69 86 70 -3 0 -28 -16
-55 -35z"/>
<path d="M3728 3573 c6 -2 18 -2 25 0 6 3 1 5 -13 5 -14 0 -19 -2 -12 -5z"/>
<path d="M5343 3513 c-18 -7 -16 -23 2 -23 8 0 15 7 15 15 0 8 -1 15 -2 14 -2
0 -9 -3 -15 -6z"/>
<path d="M6234 3424 c3 -9 6 -23 6 -32 0 -9 5 -24 10 -32 8 -13 11 -12 24 5
12 17 12 23 -6 47 -21 30 -44 38 -34 12z"/>
<path d="M6184 3318 c-34 -11 -61 -25 -60 -32 3 -21 21 -43 43 -55 30 -15 36
-14 29 6 -5 11 3 26 24 44 16 15 30 35 30 43 0 9 -1 16 -2 15 -2 0 -31 -10
-64 -21z"/>
<path d="M4120 3180 c0 -5 4 -10 9 -10 6 0 13 5 16 10 3 6 -1 10 -9 10 -9 0
-16 -4 -16 -10z"/>
<path d="M3930 2900 c0 -5 4 -10 9 -10 6 0 13 5 16 10 3 6 -1 10 -9 10 -9 0
-16 -4 -16 -10z"/>
<path d="M4116 2895 c-3 -8 -1 -15 4 -15 6 0 10 7 10 15 0 8 -2 15 -4 15 -2 0
-6 -7 -10 -15z"/>
<path d="M2876 2784 c-4 -16 -2 -31 5 -38 9 -8 10 -8 5 1 -3 6 -2 23 4 37 5
14 6 26 1 26 -5 0 -12 -12 -15 -26z"/>
<path d="M4247 2803 c-12 -11 -8 -23 8 -23 8 0 15 7 15 15 0 16 -12 20 -23 8z"/>
<path d="M3980 2785 c-11 -13 -10 -14 4 -9 9 3 16 10 16 15 0 13 -6 11 -20 -6z"/>
<path d="M6015 2790 c-3 -5 -12 -7 -19 -4 -16 6 -17 -27 -2 -38 6 -4 4 -13 -4
-22 -7 -9 -10 -19 -7 -23 4 -3 2 -14 -3 -23 -8 -15 -6 -17 10 -13 14 4 20 14
20 32 0 15 4 31 9 37 13 14 23 64 12 64 -5 0 -12 -4 -16 -10z"/>
<path d="M7975 2770 c3 -5 8 -10 11 -10 2 0 4 5 4 10 0 6 -5 10 -11 10 -5 0
-7 -4 -4 -10z"/>
<path d="M6322 2757 c-1 -10 -9 -29 -18 -43 -13 -19 -14 -28 -5 -37 19 -19 33
6 28 54 -2 24 -4 36 -5 26z"/>
<path d="M3185 2751 c-3 -5 -1 -12 5 -16 5 -3 10 1 10 9 0 18 -6 21 -15 7z"/>
<path d="M2910 2725 c0 -14 5 -25 10 -25 6 0 10 11 10 25 0 14 -4 25 -10 25
-5 0 -10 -11 -10 -25z"/>
<path d="M3875 2714 c-17 -26 -15 -41 4 -29 6 3 15 15 21 25 16 30 -6 33 -25
4z"/>
<path d="M4310 2731 c0 -5 5 -13 10 -16 6 -3 10 -2 10 4 0 5 -4 13 -10 16 -5
3 -10 2 -10 -4z"/>
<path d="M7818 2715 c-10 -13 -18 -31 -18 -39 0 -8 -4 -18 -10 -21 -11 -7
-100 -180 -100 -196 0 -5 5 -7 10 -4 6 4 8 10 6 14 -3 4 5 14 19 21 13 7 26
23 29 36 4 13 14 24 22 24 10 0 14 6 11 14 -9 22 15 89 50 143 19 29 2 36 -19
8z"/>
<path d="M7926 2728 c-3 -7 -15 -26 -26 -43 -11 -16 -24 -41 -30 -55 -5 -14
-15 -33 -20 -42 -6 -10 -10 -23 -10 -30 0 -6 -9 -21 -20 -33 -34 -37 -82 -138
-68 -146 9 -6 9 -11 -1 -23 -8 -10 -9 -16 -3 -16 6 0 21 14 33 32 13 17 24 27
27 20 4 -12 -41 -129 -70 -180 -22 -40 -22 -39 3 -45 15 -4 19 -2 15 8 -3 8 0
12 7 9 7 -2 35 14 63 35 35 26 55 36 62 29 7 -7 17 21 31 84 46 201 71 388 52
388 -6 0 -11 -4 -11 -10 0 -5 -5 -10 -11 -10 -6 0 -8 9 -4 20 7 22 -9 28 -19
8z m23 -60 c0 -7 -6 -29 -14 -48 -10 -28 -14 -32 -20 -17 -4 9 -4 25 1 35 7
16 9 23 13 37 2 11 21 4 20 -7z m-49 -97 c0 -5 -7 -11 -15 -15 -8 -3 -15 -17
-15 -31 0 -16 -6 -25 -15 -25 -8 0 -15 -5 -15 -12 0 -6 -2 -9 -5 -6 -3 3 -1
18 5 34 16 42 60 82 60 55z"/>
<path d="M3920 2714 c0 -14 3 -14 15 -4 8 7 15 14 15 16 0 2 -7 4 -15 4 -8 0
-15 -7 -15 -16z"/>
<path d="M2871 2684 c0 -11 3 -14 6 -6 3 7 2 16 -1 19 -3 4 -6 -2 -5 -13z"/>
<path d="M2894 2649 c4 -23 12 -51 19 -63 l12 -21 3 24 c2 13 -1 28 -7 34 -6
6 -11 24 -11 39 0 15 -5 28 -11 28 -8 0 -9 -13 -5 -41z"/>
<path d="M3966 2674 c-4 -10 1 -22 11 -29 23 -17 27 -12 19 20 -7 29 -21 33
-30 9z"/>
<path d="M7676 2655 c-3 -8 -1 -15 3 -15 5 0 11 7 15 15 3 8 1 15 -3 15 -5 0
-11 -7 -15 -15z"/>
<path d="M2930 2650 c0 -5 5 -10 11 -10 5 0 7 5 4 10 -3 6 -8 10 -11 10 -2 0
-4 -4 -4 -10z"/>
<path d="M3530 2631 c0 -11 -4 -23 -10 -26 -5 -3 -10 -14 -10 -23 0 -15 1 -15
16 0 18 18 28 68 13 68 -5 0 -9 -9 -9 -19z"/>
<path d="M4421 2604 c0 -11 3 -14 6 -6 3 7 2 16 -1 19 -3 4 -6 -2 -5 -13z"/>
<path d="M5988 2613 c-10 -2 -18 -9 -18 -14 0 -14 16 -11 30 6 7 8 11 14 9 14
-2 -1 -12 -3 -21 -6z"/>
<path d="M6131 2601 c-7 -13 -8 -52 -2 -71 3 -7 40 63 41 76 0 17 -30 13 -39
-5z"/>
<path d="M6889 2568 c-12 -29 -26 -61 -31 -70 -5 -12 -3 -18 5 -18 16 1 57 66
57 90 0 10 5 22 10 25 15 9 12 25 -4 25 -7 0 -24 -24 -37 -52z"/>
<path d="M7317 2614 c-4 -4 -7 -14 -7 -23 0 -11 3 -12 11 -4 6 6 10 16 7 23
-2 6 -7 8 -11 4z"/>
<path d="M2844 2593 c-8 -19 -10 -30 -13 -75 0 -18 -7 -28 -16 -28 -8 0 -15
-4 -15 -10 0 -5 -5 -10 -11 -10 -5 0 -7 5 -4 10 3 6 1 10 -5 10 -6 0 -8 -14
-4 -39 5 -34 3 -41 -17 -51 -22 -12 -22 -13 -4 -26 18 -13 18 -14 -4 -14 -18
0 -22 -4 -18 -19 5 -19 -24 -61 -42 -61 -10 0 -21 -51 -14 -64 8 -12 56 47 83
101 13 27 27 42 35 39 15 -6 65 44 65 65 0 9 3 19 8 23 18 19 28 82 17 114
-16 45 -30 58 -41 35z m22 -87 c-21 -45 -27 -46 -20 -3 10 54 13 62 26 49 8
-8 6 -20 -6 -46z m-51 -104 c-10 -10 -16 -12 -13 -7 3 6 8 19 13 30 5 14 9 16
12 7 3 -8 -3 -21 -12 -30z"/>
<path d="M5860 2574 c0 -8 9 -27 20 -42 15 -20 20 -46 22 -102 2 -88 -9 -223
-23 -264 -16 -51 -10 -62 14 -26 30 44 48 96 40 116 -4 11 0 15 12 12 23 -4
35 35 24 75 -11 39 6 25 46 -37 34 -53 75 -104 75 -93 0 4 -14 34 -31 67 -17
34 -29 63 -26 66 2 3 22 -22 43 -56 44 -67 59 -76 51 -27 l-6 32 31 -35 c70
-79 -30 83 -120 194 -66 82 -172 156 -172 120z m136 -141 c-8 -9 -46 32 -46
50 0 7 12 -1 27 -15 15 -15 23 -31 19 -35z"/>
<path d="M3466 2567 c3 -10 9 -15 12 -12 3 3 0 11 -7 18 -10 9 -11 8 -5 -6z"/>
<path d="M6443 2562 c-6 -4 -15 -20 -19 -36 -5 -21 -4 -27 5 -22 6 4 11 13 11
21 0 7 5 15 12 17 6 2 9 9 7 16 -2 6 -9 8 -16 4z"/>
<path d="M2786 2543 c-4 -9 -2 -21 4 -27 7 -7 10 -2 10 17 0 31 -5 34 -14 10z"/>
<path d="M3413 2516 c-22 -23 -32 -76 -15 -76 8 0 52 80 52 94 0 12 -16 5 -37
-18z"/>
<path d="M4295 2483 c-9 -18 -15 -45 -13 -58 3 -22 7 -19 40 29 l38 54 -25 4
c-20 4 -27 -1 -40 -29z"/>
<path d="M1265 2481 c-8 -26 1 -39 16 -24 8 8 8 17 1 29 -9 16 -10 15 -17 -5z"/>
<path d="M6690 2490 c0 -5 5 -10 10 -10 6 0 10 5 10 10 0 6 -4 10 -10 10 -5 0
-10 -4 -10 -10z"/>
<path d="M2915 2433 c4 -27 7 -50 8 -53 3 -12 -25 -80 -33 -80 -5 0 -7 -7 -4
-15 8 -21 17 -19 30 8 6 12 19 37 30 55 18 31 18 33 2 63 -10 17 -18 39 -18
50 0 10 -5 19 -11 19 -8 0 -9 -15 -4 -47z"/>
<path d="M3027 2461 c-4 -17 -3 -21 5 -13 5 5 8 16 6 23 -3 8 -7 3 -11 -10z"/>
<path d="M3121 2470 c-1 -8 -4 -25 -7 -37 -8 -30 21 -32 36 -3 8 16 8 20 -4
20 -8 0 -17 8 -19 18 -3 12 -5 13 -6 2z"/>
<path d="M3255 2460 c-3 -5 -1 -10 4 -10 6 0 11 5 11 10 0 6 -2 10 -4 10 -3 0
-8 -4 -11 -10z"/>
<path d="M2471 2444 c0 -11 3 -14 6 -6 3 7 2 16 -1 19 -3 4 -6 -2 -5 -13z"/>
<path d="M2558 2427 c-5 -10 -8 -31 -8 -45 1 -24 2 -25 11 -9 6 10 9 30 7 45
-2 23 -4 24 -10 9z"/>
<path d="M7672 2428 c-7 -7 -12 -19 -12 -27 -1 -9 -14 -32 -30 -51 -38 -44
-39 -71 -2 -30 38 41 75 107 64 114 -5 3 -14 0 -20 -6z"/>
<path d="M1147 2423 c-11 -10 -8 -43 3 -43 6 0 10 11 10 25 0 26 -2 29 -13 18z"/>
<path d="M1817 2410 c-13 -37 -16 -69 -8 -75 11 -6 26 57 18 77 -4 10 -6 9
-10 -2z"/>
<path d="M3546 2411 c-4 -7 -5 -15 -2 -18 9 -9 19 4 14 18 -4 11 -6 11 -12 0z"/>
<path d="M2160 2399 c0 -5 5 -7 10 -4 6 3 10 8 10 11 0 2 -4 4 -10 4 -5 0 -10
-5 -10 -11z"/>
<path d="M6813 2393 c-3 -10 -20 -35 -36 -56 -36 -47 -68 -107 -56 -107 4 0
28 30 52 68 59 91 70 112 57 112 -6 0 -13 -8 -17 -17z"/>
<path d="M3097 2346 c-31 -62 -33 -74 -13 -57 16 14 56 86 56 101 0 25 -19 5
-43 -44z"/>
<path d="M1420 2379 c0 -5 5 -7 10 -4 6 3 10 8 10 11 0 2 -4 4 -10 4 -5 0 -10
-5 -10 -11z"/>
<path d="M4225 2370 c4 -6 11 -8 16 -5 14 9 11 15 -7 15 -8 0 -12 -5 -9 -10z"/>
<path d="M2965 2330 c-3 -5 1 -10 10 -10 9 0 13 5 10 10 -3 6 -8 10 -10 10 -2
0 -7 -4 -10 -10z"/>
<path d="M7700 2290 c0 -5 5 -10 10 -10 6 0 10 5 10 10 0 6 -4 10 -10 10 -5 0
-10 -4 -10 -10z"/>
<path d="M1121 2254 c0 -11 3 -14 6 -6 3 7 2 16 -1 19 -3 4 -6 -2 -5 -13z"/>
<path d="M1781 2254 c0 -11 3 -14 6 -6 3 7 2 16 -1 19 -3 4 -6 -2 -5 -13z"/>
<path d="M2870 2250 c0 -5 5 -10 10 -10 6 0 10 5 10 10 0 6 -4 10 -10 10 -5 0
-10 -4 -10 -10z"/>
<path d="M1761 2224 c0 -11 3 -14 6 -6 3 7 2 16 -1 19 -3 4 -6 -2 -5 -13z"/>
<path d="M7870 2215 c0 -8 5 -15 10 -15 6 0 10 7 10 15 0 8 -4 15 -10 15 -5 0
-10 -7 -10 -15z"/>
<path d="M3125 1980 c-3 -5 0 -13 9 -16 21 -8 61 -1 61 11 0 14 -62 19 -70 5z"/>
<path d="M1520 1915 c0 -10 11 -15 35 -15 39 0 47 14 13 24 -36 9 -48 7 -48
-9z"/>
<path d="M1648 1923 c-30 -8 -20 -21 20 -28 120 -20 278 -21 232 -2 -52 21
-215 41 -252 30z"/>
<path d="M1580 1863 c0 -18 59 -38 72 -25 15 15 7 22 -36 29 -21 3 -36 2 -36
-4z"/>
<path d="M1946 1619 c6 -11 61 -12 68 -1 2 4 -13 8 -35 8 -21 1 -36 -2 -33 -7z"/>
<path d="M4945 1553 c-22 -14 -52 -34 -67 -45 -15 -10 -34 -18 -41 -18 -8 0
-25 -8 -38 -19 -13 -10 -37 -18 -54 -17 -16 1 -45 -7 -63 -17 -19 -11 -52 -20
-73 -20 -31 0 -39 -3 -35 -14 4 -8 6 -22 6 -31 0 -12 4 -11 23 6 30 29 37 28
37 -5 0 -21 3 -24 12 -15 14 14 42 16 33 2 -3 -5 -1 -10 4 -10 6 0 11 6 11 13
0 8 16 18 35 24 29 9 35 9 35 -4 0 -23 23 -10 40 23 l15 29 3 -28 c2 -15 -5
-45 -16 -65 -11 -20 -31 -59 -45 -85 -28 -51 -26 -77 3 -77 30 0 33 18 3 22
-25 3 -26 4 -10 20 9 9 17 21 17 27 0 6 13 8 33 5 l32 -5 -30 15 c-16 8 -25
15 -19 15 6 1 21 23 33 51 18 42 27 51 60 60 37 10 60 40 68 90 1 7 11 21 21
30 22 17 36 70 18 69 -6 0 -29 -12 -51 -26z"/>
<path d="M3383 1443 c6 -21 16 -41 21 -45 12 -8 66 1 83 14 6 5 17 8 25 7 7
-1 24 0 38 1 24 2 24 2 -4 10 -17 6 -36 5 -47 0 -31 -17 -60 -11 -91 20 -16
17 -31 30 -33 30 -2 0 2 -17 8 -37z"/>
<path d="M5253 1443 c9 -2 25 -2 35 0 9 3 1 5 -18 5 -19 0 -27 -2 -17 -5z"/>
<path d="M3140 1420 c0 -5 5 -10 11 -10 5 0 7 5 4 10 -3 6 -8 10 -11 10 -2 0
-4 -4 -4 -10z"/>
<path d="M3958 1399 c6 -7 12 -23 12 -36 0 -25 27 -32 48 -11 8 8 15 8 26 -1
8 -7 20 -10 26 -6 5 3 10 0 10 -9 0 -26 -12 -46 -27 -46 -9 0 -13 6 -9 15 11
29 -33 -8 -49 -41 -19 -40 -19 -61 -1 -80 21 -20 25 -18 42 21 8 19 18 35 23
35 5 0 23 23 40 50 17 28 38 50 46 50 22 0 18 -13 -10 -38 -26 -23 -33 -56
-14 -68 16 -9 48 27 64 72 9 26 20 40 34 42 30 5 28 -31 -4 -52 -16 -10 -25
-26 -25 -41 0 -30 -1 -29 38 -9 18 8 35 26 38 39 3 13 17 31 30 39 27 19 46
21 23 3 -18 -14 -39 -50 -39 -68 0 -37 166 40 184 86 8 23 26 18 26 -7 0 -21
3 -20 37 14 29 29 35 40 25 50 -9 9 -20 8 -49 -5 -32 -14 -68 -16 -218 -12
-99 2 -180 5 -180 5 0 1 -16 3 -35 5 -19 1 -55 5 -80 10 -37 6 -43 5 -32 -6z
m95 -139 c-3 -11 -9 -20 -14 -20 -14 0 -11 28 4 33 6 3 13 6 14 6 0 1 -1 -8
-4 -19z"/>
<path d="M5260 1372 c0 -14 76 -35 102 -29 10 3 58 2 105 -3 84 -7 133 1 133
22 0 4 -39 8 -87 8 -49 0 -125 3 -170 7 -58 4 -83 3 -83 -5z"/>
<path d="M5640 1355 c-13 -16 -3 -20 24 -9 9 3 13 10 10 15 -8 13 -20 11 -34
-6z"/>
<path d="M5130 1341 c-25 -4 -30 -8 -19 -13 22 -9 100 2 93 13 -6 10 -20 10
-74 0z"/>
<path d="M4577 1267 c-52 -63 -94 -123 -99 -145 -8 -29 3 -28 32 3 13 14 20
25 15 25 -5 0 -1 6 10 13 12 9 15 19 10 28 -5 8 -5 11 -1 8 11 -10 76 52 76
72 0 31 -15 29 -43 -4z"/>
<path d="M5245 1281 c22 -10 69 -23 105 -29 54 -8 70 -7 93 7 28 16 28 16 -55
22 -46 4 -105 10 -133 13 l-50 6 40 -19z"/>
<path d="M845 1270 c-4 -6 5 -10 19 -10 14 0 26 5 26 10 0 6 -9 10 -19 10 -11
0 -23 -4 -26 -10z"/>
<path d="M4500 1248 c-12 -22 -12 -22 6 -6 10 10 15 20 12 24 -4 3 -12 -5 -18
-18z"/>
<path d="M988 1253 c7 -3 16 -2 19 1 4 3 -2 6 -13 5 -11 0 -14 -3 -6 -6z"/>
<path d="M2590 1220 c-36 -16 -96 -36 -135 -46 -70 -17 -109 -39 -99 -55 3 -5
-6 -9 -20 -9 -19 0 -26 -5 -26 -20 0 -24 26 -26 58 -4 13 9 29 13 37 10 16 -6
137 34 205 69 38 19 48 30 52 55 3 16 2 30 -1 29 -3 0 -35 -13 -71 -29z"/>
<path d="M684 1223 c30 -30 186 -58 186 -33 0 6 -22 10 -49 10 -34 0 -51 4
-55 15 -3 10 -19 15 -47 15 -23 0 -39 -3 -35 -7z"/>
<path d="M890 1219 c-20 -6 -17 -7 18 -8 23 -1 42 1 42 3 0 9 -37 12 -60 5z"/>
<path d="M5500 1211 c0 -14 39 -21 122 -21 73 0 106 11 72 24 -25 9 -194 7
-194 -3z"/>
<path d="M4079 1203 c-20 -5 -44 -47 -34 -63 5 -8 13 -6 27 7 41 36 44 64 7
56z"/>
<path d="M3240 1170 c0 -5 3 -10 8 -10 4 0 45 -3 92 -7 115 -8 143 -8 166 2
15 7 10 10 -26 16 -68 11 -240 11 -240 -1z"/>
<path d="M4384 1149 c-21 -23 -23 -29 -9 -21 25 13 62 52 48 52 -5 0 -22 -14
-39 -31z"/>
<path d="M4662 1160 c-6 -11 -12 -22 -12 -25 0 -11 20 6 30 26 14 25 -2 25
-18 -1z"/>
<path d="M3997 1139 c4 -13 8 -18 11 -10 2 7 -1 18 -6 23 -8 8 -9 4 -5 -13z"/>
<path d="M2680 1129 c-14 -11 -36 -30 -49 -41 -13 -11 -51 -36 -85 -56 -33
-19 -63 -38 -66 -42 -8 -12 -88 -50 -104 -50 -17 0 -29 -27 -16 -35 23 -14
115 23 245 98 39 23 75 41 80 42 14 0 105 67 105 77 0 10 -45 28 -68 28 -9 -1
-28 -10 -42 -21z"/>
<path d="M800 1120 c0 -13 11 -13 30 0 12 8 11 10 -7 10 -13 0 -23 -4 -23 -10z"/>
<path d="M1221 1103 c-13 -13 -35 -23 -48 -23 -12 0 -23 -4 -23 -10 0 -5 -15
-16 -34 -25 -28 -13 -41 -14 -80 -4 -38 9 -46 15 -41 30 6 17 -1 18 -96 17
-97 -1 -104 -3 -133 -29 l-31 -28 28 -10 c29 -11 117 -4 117 10 0 4 9 11 20
14 23 7 90 -12 90 -26 0 -12 -17 -12 -25 1 -10 17 -54 11 -75 -10 -11 -11 -27
-20 -36 -20 -8 0 -12 -4 -9 -10 3 -5 13 -10 21 -10 8 0 12 5 9 10 -3 6 -1 10
4 10 6 0 11 -14 11 -30 0 -29 2 -30 39 -28 21 2 37 7 34 12 -8 12 19 26 40 20
11 -4 17 0 17 11 0 12 5 15 17 11 42 -17 100 -17 136 -3 36 15 38 15 63 -9
l27 -24 -29 -1 c-16 0 -40 -2 -54 -3 -14 -1 -53 -3 -87 -4 -35 -1 -63 -6 -63
-10 0 -5 21 -13 48 -19 l47 -10 -40 -2 c-38 -3 -39 -3 -12 -11 15 -5 74 -16
131 -25 l103 -16 36 23 c41 26 46 38 17 38 -36 0 -21 18 20 25 49 8 43 25 -8
25 l-37 1 40 24 c22 14 50 25 62 25 13 0 27 10 34 22 7 13 14 18 16 11 3 -7
11 -9 19 -6 27 10 3 23 -44 23 -41 0 -50 -4 -67 -30 -21 -31 -46 -39 -62 -17
-15 20 -13 60 3 79 24 25 9 37 -44 35 -33 -1 -54 -9 -71 -24z m65 -30 c-8 -8
-36 5 -36 17 0 7 6 7 21 0 11 -7 18 -14 15 -17z m4 -153 c-8 -5 -33 -9 -55 -9
-31 0 -36 2 -20 9 29 13 94 13 75 0z"/>
<path d="M1170 1105 c-10 -13 -9 -15 9 -15 11 0 21 4 21 9 0 18 -18 21 -30 6z"/>
<path d="M3970 1095 c-7 -9 -11 -18 -8 -20 3 -3 11 1 18 10 7 9 11 18 8 20 -3
3 -11 -1 -18 -10z"/>
<path d="M3980 1055 c-20 -24 -6 -28 15 -5 10 11 13 20 8 20 -6 0 -16 -7 -23
-15z"/>
<path d="M4000 1025 c-7 -8 -8 -15 -2 -15 5 0 15 7 22 15 7 8 8 15 2 15 -5 0
-15 -7 -22 -15z"/>
<path d="M1605 990 c-9 -16 -20 -30 -25 -30 -6 0 -10 -5 -10 -10 0 -20 40 15
49 42 13 37 5 36 -14 -2z"/>
<path d="M1545 999 c-12 -19 5 -23 22 -6 16 16 16 17 1 17 -9 0 -20 -5 -23
-11z"/>
<path d="M4220 985 c-11 -13 -10 -14 4 -9 9 3 16 10 16 15 0 13 -6 11 -20 -6z"/>
<path d="M1168 963 c7 -3 16 -2 19 1 4 3 -2 6 -13 5 -11 0 -14 -3 -6 -6z"/>
<path d="M5732 922 c-68 -2 -92 -6 -89 -15 2 -7 15 -11 28 -9 13 2 84 4 157 4
73 1 127 5 120 9 -19 10 -109 14 -216 11z"/>
<path d="M5583 903 c9 -2 23 -2 30 0 6 3 -1 5 -18 5 -16 0 -22 -2 -12 -5z"/>
<path d="M7003 893 c-24 -2 -43 -8 -43 -12 0 -4 28 -13 62 -19 61 -11 64 -11
88 13 l25 25 -45 -2 c-25 -1 -64 -3 -87 -5z"/>
<path d="M5675 870 c-3 -5 -1 -11 4 -15 23 -14 109 -35 144 -35 49 0 171 30
160 40 -12 11 -301 21 -308 10z"/>
<path d="M3432 859 c10 -6 15 -16 11 -26 -10 -24 64 -83 104 -83 18 0 33 -5
33 -11 0 -8 -15 -10 -45 -7 -48 6 -64 -4 -45 -27 11 -13 6 -15 -31 -15 -50 -1
-152 -46 -157 -70 -2 -12 7 -15 37 -15 50 0 64 -13 65 -62 1 -35 3 -38 31 -38
21 0 31 -5 33 -19 3 -16 10 -18 48 -12 30 4 46 2 51 -7 4 -7 27 -18 50 -25 39
-12 45 -10 102 20 52 28 63 31 71 18 8 -13 13 -13 40 3 31 19 68 15 82 -7 6
-8 8 -7 8 2 0 7 13 12 30 12 17 0 30 -5 30 -11 0 -8 5 -8 15 1 18 15 70 7 90
-14 10 -10 31 -13 70 -10 32 2 55 0 55 -6 0 -16 26 -11 53 11 15 11 32 19 39
18 7 -2 39 6 71 16 55 18 60 18 105 2 26 -10 58 -16 73 -15 30 2 89 -20 89
-35 0 -6 -6 -18 -14 -26 -18 -20 -11 -62 15 -90 16 -17 32 -21 80 -21 38 0 58
4 54 10 -3 5 -13 10 -21 10 -8 0 -14 7 -14 15 0 13 11 15 58 13 47 -2 57 -6
56 -20 -3 -29 55 -40 173 -33 106 6 148 12 168 24 6 3 19 7 30 8 11 2 30 5 43
8 21 5 22 7 6 22 -13 13 -20 14 -35 5 -26 -16 -36 -15 -59 8 -23 23 -40 26
-40 6 0 -8 10 -16 23 -18 l22 -3 -24 -14 c-17 -9 -29 -10 -45 -3 -11 6 -43 13
-71 16 -27 4 -51 11 -53 16 -2 6 -10 10 -19 10 -8 0 -13 7 -11 17 3 15 13 18
63 16 33 -2 75 2 94 8 30 10 69 17 194 33 21 3 43 8 49 12 7 4 8 3 4 -4 -4 -6
-30 -14 -58 -18 -48 -7 -49 -8 -27 -20 14 -8 39 -11 60 -7 22 3 39 1 43 -6 8
-13 126 -14 228 -3 47 6 96 3 165 -9 l98 -17 -120 -2 c-66 0 -151 -7 -190 -14
l-70 -12 64 -5 c42 -4 68 -11 75 -21 16 -21 79 -33 103 -19 17 10 17 10 1 11
-30 0 -20 17 13 24 42 8 154 8 145 -1 -3 -4 -32 -12 -64 -19 -54 -12 -55 -12
-17 -13 22 -1 67 4 100 9 33 5 89 12 124 15 39 3 77 14 97 26 28 17 50 20 183
20 l150 0 71 40 c38 22 72 44 74 47 2 4 -33 7 -77 7 -45 0 -158 2 -252 4 -93
2 -188 0 -209 -4 -33 -7 -38 -5 -33 7 4 12 -4 17 -33 22 -21 3 -45 3 -53 0 -8
-3 -35 0 -58 7 -37 10 -94 14 -246 18 -14 1 -23 7 -23 16 0 17 -18 18 -72 6
-37 -9 -55 3 -20 13 9 2 -14 4 -53 3 -61 -1 -70 0 -67 16 3 16 -9 20 -58 19
-3 0 -16 -3 -30 -7 -22 -7 -23 -6 -12 8 21 25 8 34 -60 41 -35 3 -90 9 -123
12 -33 4 -67 13 -76 20 -8 8 -33 13 -55 12 -63 -2 -224 14 -219 22 7 11 -78
22 -99 14 -18 -7 -36 -43 -36 -70 0 -8 11 -14 28 -15 37 -2 -103 -37 -148 -38
l-35 0 42 21 c35 18 43 27 48 60 4 22 4 42 1 46 -7 6 -158 3 -165 -4 -2 -2 2
-10 9 -19 19 -23 5 -45 -30 -45 -20 0 -30 5 -30 15 0 20 -24 19 -82 -2 -37
-13 -52 -14 -70 -6 -35 17 -123 23 -181 13 -29 -5 -79 -12 -112 -16 -33 -4
-53 -9 -45 -12 8 -3 21 -13 28 -24 17 -23 44 -24 35 -1 -6 15 1 15 68 9 41 -4
98 -9 128 -11 33 -3 61 -11 70 -21 15 -15 13 -16 -24 -10 -111 15 -218 18
-225 6 -11 -19 -80 -4 -80 17 0 13 -9 15 -61 9 -42 -4 -80 -1 -122 10 -34 8
-81 15 -106 13 -81 -3 -97 -1 -82 14 8 8 54 12 149 13 75 0 191 7 257 14 66 8
152 13 190 12 80 -3 255 17 255 28 0 5 -29 10 -65 12 -36 1 -65 0 -65 -4 0 -5
-19 -8 -42 -7 l-43 1 34 10 c55 15 21 26 -111 34 -65 3 -118 10 -118 14 0 12
-221 18 -288 8 -65 -10 -101 -3 -44 8 56 11 34 26 -35 24 -101 -3 -113 -2
-113 15 0 10 -10 15 -27 15 -24 -1 -25 -2 -11 -11z m215 -135 c-3 -3 -12 -4
-19 -1 -8 3 -5 6 6 6 11 1 17 -2 13 -5z m1532 -88 c-2 -2 -26 -6 -54 -10 -36
-5 -46 -4 -35 3 13 10 99 16 89 7z m485 -128 c-5 -8 13 -9 72 -5 69 6 77 5 64
-7 -23 -23 -190 -19 -190 4 0 10 19 18 43 19 11 1 15 -3 11 -11z m-247 -24
c-3 -3 -12 -4 -19 -1 -8 3 -5 6 6 6 11 1 17 -2 13 -5z m-732 -34 c3 -6 -1 -7
-9 -4 -18 7 -21 14 -7 14 6 0 13 -4 16 -10z m880 0 c-3 -5 -13 -10 -21 -10 -8
0 -12 5 -9 10 3 6 13 10 21 10 8 0 12 -4 9 -10z m480 -10 c4 -6 -11 -10 -37
-9 -33 0 -38 2 -23 9 28 12 53 12 60 0z m-1235 -21 c14 -25 11 -29 -36 -39
-44 -10 -60 -4 -43 16 10 12 8 18 -7 29 -17 13 -15 14 28 15 38 0 50 -4 58
-21z"/>
<path d="M6110 860 c0 -5 6 -10 13 -11 6 0 62 -1 122 -3 l110 -3 -75 13 c-92
15 -170 17 -170 4z"/>
<path d="M1206 821 c-5 -7 3 -11 21 -11 15 0 53 -3 83 -6 38 -4 50 -2 40 5
-25 15 -136 25 -144 12z"/>
<path d="M6484 811 c22 -11 42 -18 45 -16 9 10 -15 25 -49 31 l-35 6 39 -21z"/>
<path d="M3307 806 c-3 -8 -3 -16 0 -19 6 -7 43 15 43 25 0 14 -38 8 -43 -6z"/>
<path d="M5638 813 c7 -3 16 -2 19 1 4 3 -2 6 -13 5 -11 0 -14 -3 -6 -6z"/>
<path d="M6788 813 c17 -2 47 -2 65 0 17 2 3 4 -33 4 -36 0 -50 -2 -32 -4z"/>
<path d="M1105 800 c3 -5 12 -10 20 -10 8 0 17 5 20 10 4 6 -5 10 -20 10 -15
0 -24 -4 -20 -10z"/>
<path d="M6120 800 c-10 -7 17 -10 87 -10 61 0 104 -4 108 -11 4 -6 32 -10 64
-9 79 2 81 2 81 -15 0 -10 -10 -15 -32 -15 -24 -1 -29 -3 -18 -9 9 -6 36 -5
65 0 32 6 57 6 70 0 23 -12 166 -34 172 -27 8 8 -70 26 -110 26 -36 0 -78 17
-117 46 -8 6 -37 15 -65 19 -84 12 -289 15 -305 5z"/>
<path d="M6583 797 c-61 -17 -66 -31 -9 -24 36 4 59 0 85 -14 43 -22 142 -39
227 -39 46 0 65 4 77 18 21 23 12 34 -17 23 -26 -11 -118 -3 -171 14 -22 6
-60 10 -85 8 -44 -4 -44 -3 -20 11 l25 15 -35 0 c-19 -1 -54 -6 -77 -12z"/>
<path d="M6965 799 c38 -6 63 -5 69 1 7 7 -14 10 -59 9 l-70 -1 60 -9z"/>
<path d="M6070 790 c-9 -6 -10 -10 -3 -10 6 0 15 5 18 10 8 12 4 12 -15 0z"/>
<path d="M4273 783 c9 -2 23 -2 30 0 6 3 -1 5 -18 5 -16 0 -22 -2 -12 -5z"/>
<path d="M2450 770 c-13 -8 -12 -10 3 -10 9 0 17 5 17 10 0 12 -1 12 -20 0z"/>
<path d="M5346 712 c-19 -18 33 -39 60 -24 11 6 7 11 -20 19 -19 6 -37 8 -40
5z"/>
<path d="M6373 713 c9 -2 23 -2 30 0 6 3 -1 5 -18 5 -16 0 -22 -2 -12 -5z"/>
<path d="M1341 701 c-7 -5 -21 -7 -30 -4 -13 3 -16 -5 -18 -42 -2 -36 1 -45
15 -46 10 0 12 -3 5 -6 -15 -5 -17 -29 -4 -37 5 -3 18 10 30 29 11 19 17 35
13 35 -5 0 -17 6 -28 14 -17 13 -10 14 63 13 87 -2 117 9 95 36 -13 15 -119
21 -141 8z"/>
<path d="M1120 669 c19 -16 40 -29 46 -29 7 0 15 -7 18 -16 5 -13 11 -11 36
13 l30 28 -37 8 c-21 4 -58 12 -83 16 l-45 9 35 -29z"/>
<path d="M6780 685 c10 -12 10 -15 -1 -16 -8 0 -34 -3 -59 -7 -68 -9 -199 -5
-255 8 -35 8 -65 9 -100 2 l-50 -10 55 -1 c30 -1 92 -8 137 -16 45 -8 136 -15
202 -16 l120 -1 40 33 c23 18 41 34 41 36 0 2 -32 3 -71 3 -62 0 -70 -2 -59
-15z"/>
<path d="M5550 670 c-11 -7 1 -10 40 -10 39 0 51 3 40 10 -8 5 -26 10 -40 10
-14 0 -32 -5 -40 -10z"/>
<path d="M6207 663 c18 -2 50 -2 70 0 21 2 7 4 -32 4 -38 0 -55 -2 -38 -4z"/>
<path d="M6395 600 c-8 -13 5 -13 25 0 13 8 13 10 -2 10 -9 0 -20 -4 -23 -10z"/>
<path d="M5578 583 c6 -2 18 -2 25 0 6 3 1 5 -13 5 -14 0 -19 -2 -12 -5z"/>
<path d="M5920 580 c-59 -5 -62 -6 -35 -15 33 -11 138 -11 155 0 6 3 8 11 5
16 -6 9 -19 9 -125 -1z"/>
<path d="M6473 583 c9 -2 23 -2 30 0 6 3 -1 5 -18 5 -16 0 -22 -2 -12 -5z"/>
<path d="M6134 566 c-10 -8 -28 -16 -39 -19 -19 -4 -18 -5 2 -6 12 0 25 4 28
9 3 6 25 10 47 10 45 0 47 4 7 13 -15 4 -33 1 -45 -7z"/>
<path d="M6451 536 c10 -10 213 -26 221 -18 5 5 -21 12 -59 15 -78 8 -168 9
-162 3z"/>
<path d="M4044 446 c11 -9 28 -16 37 -16 10 0 26 -3 36 -6 16 -6 15 -4 -2 8
-11 8 -27 15 -35 15 -8 0 -24 4 -35 8 -20 7 -20 6 -1 -9z"/>
<path d="M4230 369 c0 -5 11 -9 25 -9 14 0 25 2 25 4 0 2 -11 6 -25 8 -14 3
-25 1 -25 -3z"/>
<path d="M5326 371 c-18 -7 -18 -8 5 -14 36 -10 87 -8 94 3 4 6 -6 10 -24 10
-16 0 -35 2 -43 4 -7 3 -22 1 -32 -3z"/>
<path d="M2102 354 c-92 -15 -178 -48 -186 -71 -23 -59 99 -83 226 -43 34 11
71 20 81 20 18 0 24 16 8 22 -5 2 -11 17 -14 35 -6 35 -14 54 -25 52 -4 -1
-44 -7 -90 -15z"/>
<path d="M4384 359 c-8 -13 4 -25 34 -34 29 -9 28 9 -2 29 -17 11 -27 12 -32
5z"/>
<path d="M4489 349 c-12 -8 -12 -10 1 -19 19 -13 50 -13 50 0 0 16 -35 29 -51
19z"/>
<path d="M2313 338 c1 -7 -11 -15 -28 -18 l-30 -6 29 -8 c32 -8 64 13 52 33
-10 15 -27 14 -23 -1z"/>
<path d="M6115 309 c-147 -10 -366 -13 -440 -6 -43 4 -50 3 -25 -3 40 -9 49
-9 -275 -11 -104 0 -182 -3 -172 -6 41 -11 11 -19 -75 -21 -51 -1 -111 -4
-133 -7 -26 -4 -35 -3 -27 3 10 6 -2 11 -37 16 -75 10 -108 -2 -102 -37 0 -4
-6 -7 -14 -7 -8 0 -15 7 -15 15 0 28 -41 15 -53 -17 -8 -24 -32 -23 -57 2 -21
21 -19 25 8 11 12 -6 23 -3 36 10 19 19 19 19 -25 19 -24 0 -60 4 -79 10 -74
20 -380 19 -380 -1 0 -5 9 -9 19 -9 11 0 23 -4 26 -10 10 -16 82 -12 99 5 9 9
17 11 21 5 3 -5 17 -10 31 -10 14 0 22 4 19 10 -3 6 3 10 14 10 12 0 21 -4 21
-10 0 -5 -6 -10 -12 -10 -9 0 -8 -4 2 -10 8 -5 40 -10 70 -10 32 0 63 -7 74
-15 18 -14 16 -15 -29 -15 -26 0 -46 -2 -43 -5 2 -3 55 -5 116 -6 62 0 112 -4
112 -8 0 -4 33 -4 73 0 124 13 258 16 244 6 -8 -6 -6 -7 6 -3 50 16 552 3 563
-15 3 -5 4 -9 2 -9 -2 0 -104 -3 -228 -6 -124 -2 -265 -9 -315 -14 -49 -5
-118 -12 -153 -15 -86 -8 -434 -7 -458 1 -18 6 -18 6 1 -10 19 -17 19 -17 -10
-11 -50 10 -66 7 -92 -17 -20 -19 -25 -20 -34 -8 -8 13 -10 13 -18 1 -6 -9
-19 -12 -36 -8 -16 2 -46 -1 -69 -9 -33 -11 -220 -34 -273 -34 -7 0 -13 7 -13
15 0 14 -8 16 -65 20 -29 1 -68 16 -61 23 9 9 66 8 66 -2 0 -5 6 -4 13 2 7 6
41 9 82 6 94 -6 192 -5 224 2 88 19 82 31 -14 29 -47 -1 -85 3 -101 11 -15 8
-32 14 -39 14 -7 0 -26 7 -41 15 -42 22 -110 19 -133 -4 -17 -17 -30 -19 -88
-15 -46 3 -63 1 -53 -5 13 -9 13 -11 0 -15 -43 -14 -90 -23 -85 -16 2 4 -10 7
-28 6 -25 -1 -32 -6 -32 -21 0 -21 2 -21 85 -10 l45 6 -65 -31 c-44 -21 -75
-30 -95 -27 -16 3 -46 -2 -65 -10 -26 -11 -40 -11 -61 -2 -32 13 -108 6 -164
-15 -36 -13 47 -15 815 -15 1082 -1 1246 8 1582 88 187 45 487 151 603 214
l30 16 -55 -1 c-30 -1 -104 -5 -165 -9z m-948 -65 c-3 -3 -12 -4 -19 -1 -8 3
-5 6 6 6 11 1 17 -2 13 -5z m-184 -11 c-13 -2 -35 -2 -50 0 -16 2 -5 4 22 4
28 0 40 -2 28 -4z m77 -13 c-14 -4 -36 -8 -50 -8 -22 0 -22 1 5 8 17 4 39 8
50 8 16 0 15 -2 -5 -8z m93 3 c-7 -2 -19 -2 -25 0 -7 3 -2 5 12 5 14 0 19 -2
13 -5z m-285 -10 c-10 -2 -28 -2 -40 0 -13 2 -5 4 17 4 22 1 32 -1 23 -4z m85
0 c-7 -2 -19 -2 -25 0 -7 3 -2 5 12 5 14 0 19 -2 13 -5z"/>
<path d="M4002 298 c5 -14 64 -31 81 -25 7 3 -5 12 -25 21 -44 19 -61 20 -56
4z"/>
<path d="M3396 281 c-15 -6 -12 -9 17 -18 41 -12 55 -6 29 13 -19 15 -20 15
-46 5z"/>
<path d="M3810 275 c9 -11 31 -15 74 -14 l61 0 -50 14 c-27 8 -61 14 -74 15
-20 0 -21 -2 -11 -15z"/>
<path d="M4078 203 c7 -3 16 -2 19 1 4 3 -2 6 -13 5 -11 0 -14 -3 -6 -6z"/>
<path d="M4125 190 c3 -5 14 -10 24 -10 10 0 35 -7 54 -15 20 -8 56 -15 79
-14 40 0 37 2 -42 25 -92 26 -125 30 -115 14z"/>
<path d="M2070 171 c-32 -6 -33 -8 -12 -15 12 -4 37 -4 55 0 17 4 75 10 127
14 l95 7 -115 0 c-63 0 -131 -3 -150 -6z"/>
<path d="M3097 170 c-16 -5 -214 -12 -440 -15 -227 -3 -439 -9 -472 -13 l-60
-8 57 -17 c32 -10 81 -22 109 -27 29 -6 68 -14 88 -20 20 -5 54 -11 76 -14 22
-3 75 -12 117 -20 87 -17 291 -20 381 -5 75 13 207 65 229 90 9 11 20 19 25
19 4 -1 9 3 11 8 6 19 -81 34 -121 22z m-309 -100 c18 0 23 -3 16 -10 -14 -14
-146 -1 -137 13 3 5 25 7 51 3 25 -3 56 -6 70 -6z m-151 -6 c-3 -3 -12 -4 -19
-1 -8 3 -5 6 6 6 11 1 17 -2 13 -5z"/>
<path d="M3610 170 c-18 -12 -2 -12 25 0 13 6 15 9 5 9 -8 0 -22 -4 -30 -9z"/>
<path d="M3720 150 c-13 -8 -13 -10 2 -10 9 0 20 5 23 10 8 13 -5 13 -25 0z"/>
<path d="M3243 85 c-15 -7 -46 -24 -67 -39 -21 -14 -48 -26 -60 -26 -12 0 -28
-5 -36 -10 -10 -7 15 -10 80 -10 85 1 93 2 76 15 -18 14 -17 15 18 30 21 9 72
20 115 24 42 5 62 9 44 10 -17 0 -35 6 -38 11 -9 14 -96 10 -132 -5z m92 -5
c-3 -5 -18 -10 -33 -9 -24 0 -25 1 -7 9 28 12 47 12 40 0z"/>
<path d="M3555 90 c-8 -13 15 -13 35 0 12 8 11 10 -7 10 -12 0 -25 -4 -28 -10z"/>
<path d="M4338 93 c7 -3 16 -2 19 1 4 3 -2 6 -13 5 -11 0 -14 -3 -6 -6z"/>
<path d="M3473 73 c15 -2 37 -2 50 0 12 2 0 4 -28 4 -27 0 -38 -2 -22 -4z"/>
<path d="M3500 50 c0 -5 7 -10 16 -10 8 0 12 5 9 10 -3 6 -10 10 -16 10 -5 0
-9 -4 -9 -10z"/>
</g>
</svg>
